<svg width="24" height="24" viewBox="0 0 24 24" fill="none" xmlns="http://www.w3.org/2000/svg">
<path fill-rule="evenodd" clip-rule="evenodd" d="M17.204 10.796L19 9C19.5453 8.45475 19.8179 8.18213 19.9636 7.88803C20.2409 7.32848 20.2409 6.67153 19.9636 6.11197C19.8179 5.81788 19.5453 5.54525 19 5C18.4548 4.45475 18.1821 4.18213 17.888 4.03639C17.3285 3.75911 16.6715 3.75911 16.112 4.03639C15.8179 4.18213 15.5453 4.45475 15 5L15 5L13.1813 6.81866C14.1452 8.46926 15.5314 9.84482 17.204 10.796ZM11.7269 8.27312L5.6677 14.3323C5.33536 14.6646 5.16919 14.8308 5.04676 15.0289C4.92434 15.227 4.85002 15.4499 4.7014 15.8958L3.31623 20.0513C3.17825 20.4653 3.10926 20.6722 3.21851 20.7815C3.32776 20.8907 3.53474 20.8218 3.94868 20.6838L8.10419 19.2986C8.55007 19.15 8.77301 19.0757 8.9711 18.9532C9.16919 18.8308 9.33536 18.6646 9.6677 18.3323L15.7458 12.2542C14.1241 11.2386 12.7524 9.87628 11.7269 8.27312Z" fill="white"/>
</svg>
