<svg width="793" height="988" viewBox="0 0 793 988" fill="none" xmlns="http://www.w3.org/2000/svg">
<path d="M350.552 385.223C293.824 355.911 239.127 363.921 208.485 387.634C202.772 392.056 206.097 402.908 214.852 400.898C266.206 376.998 294.714 376.159 342.195 399.29C384.54 428.786 397.687 452.133 404.275 504.996C406.663 514.642 420.681 511.848 420.193 504.996C416.213 449.129 399.932 416.696 350.552 385.223Z" fill="#939191" stroke="#939191"/>
<path d="M676.849 849.995L604.422 922.743C628.299 953.825 677.645 1019.61 728.582 970.17C772.964 927.095 710.807 873.038 676.849 849.995Z" fill="#939191"/>
<path d="M491.027 522.427C491.027 645.626 394.09 743.854 276.513 743.854C158.936 743.854 62 645.626 62 522.427C62 399.228 158.936 301 276.513 301C394.09 301 491.027 399.228 491.027 522.427Z" stroke="#939191" stroke-width="70"/>
<path d="M663.319 834.721L493.793 679.981L482.65 694.048L467.13 712.135L449.223 727.81L436.886 736.652L591.29 910.283L663.319 834.721Z" fill="#939191"/>
<path d="M293.976 20.6309C293.595 26.5195 293.302 32.3643 293.097 38.165C292.892 43.9365 292.789 49.7373 292.789 55.5674C292.789 60.1084 292.848 64.5908 292.965 69.0146C293.111 73.4385 293.346 77.8916 293.668 82.374L284.791 82.1104C283.619 78.3018 282.462 74.5225 281.319 70.7725C280.206 66.9932 279.093 63.2432 277.979 59.5225C276.866 55.8018 275.724 52.0957 274.552 48.4043C273.409 44.7129 272.223 41.0361 270.992 37.374C271.08 45.0205 271.212 52.6523 271.388 60.2695C271.593 67.8574 271.944 75.4307 272.442 82.9893L262.291 82.9014C262.643 73.5557 262.818 64.166 262.818 54.7324C262.818 48.9316 262.76 43.1895 262.643 37.5059C262.525 31.8223 262.35 26.1094 262.115 20.3672L274.42 20.6309C275.914 27.0762 277.511 33.624 279.21 40.2744C280.909 46.9248 282.711 53.4873 284.615 59.9619C284.41 53.3408 284.103 46.7197 283.692 40.0986C283.312 33.4482 282.887 26.9297 282.418 20.543L293.976 20.6309ZM325.265 56.0068C325.265 60.6357 325.235 65.2646 325.177 69.8936C325.147 74.5225 325.06 79.3418 324.913 84.3516L317.267 83.9121V77.9795C316.388 79.5615 315.392 80.7773 314.278 81.627C313.165 82.4473 312.11 83.0625 311.114 83.4727C309.942 83.9414 308.785 84.2051 307.643 84.2637C306.236 84.2637 304.918 83.9561 303.688 83.3408C302.457 82.6963 301.388 81.8467 300.479 80.792C299.571 79.7373 298.854 78.5361 298.326 77.1885C297.828 75.8115 297.579 74.3906 297.579 72.9258C297.579 71.2559 297.931 69.6152 298.634 68.0039C299.366 66.3633 300.597 64.8838 302.325 63.5654C304.64 61.7783 306.646 60.2842 308.346 59.083C310.045 57.8818 311.451 56.7979 312.564 55.8311C313.707 54.835 314.542 53.8975 315.069 53.0186C315.626 52.1104 315.904 51.0703 315.904 49.8984C315.904 47.9648 315.582 46.5293 314.938 45.5918C314.293 44.625 313.443 44.1416 312.389 44.1416C311.744 44.1416 311.188 44.3174 310.719 44.6689C310.279 44.9912 309.913 45.4307 309.62 45.9873C309.356 46.5146 309.151 47.1152 309.005 47.7891C308.888 48.4336 308.829 49.0781 308.829 49.7227C308.829 50.1621 308.844 50.6455 308.873 51.1729C308.932 51.7002 309.034 52.2568 309.181 52.8428L299.073 53.0186C299.015 52.5205 298.971 52.0518 298.941 51.6123C298.912 51.1436 298.897 50.6895 298.897 50.25C298.897 48.4336 299.205 46.6465 299.82 44.8887C300.436 43.1016 301.329 41.5195 302.501 40.1426C303.702 38.7363 305.152 37.6084 306.852 36.7588C308.551 35.9092 310.499 35.4844 312.696 35.4844C315.538 35.4844 317.779 36.085 319.42 37.2861C321.09 38.458 322.35 40.0107 323.199 41.9443C324.078 43.8779 324.635 46.0752 324.869 48.5361C325.133 50.9678 325.265 53.458 325.265 56.0068ZM315.377 68.4434C315.523 67.7109 315.655 66.876 315.772 65.9385C315.89 65.1475 315.992 64.1953 316.08 63.082C316.168 61.9395 316.241 60.665 316.3 59.2588C315.831 59.9033 315.377 60.4746 314.938 60.9727C314.498 61.4707 314.088 61.9102 313.707 62.291C313.268 62.7305 312.857 63.126 312.477 63.4775C311.803 64.0342 311.085 64.6641 310.323 65.3672C309.562 66.041 308.858 66.7588 308.214 67.5205C307.599 68.2822 307.071 69.0732 306.632 69.8936C306.222 70.6846 306.017 71.4609 306.017 72.2227C306.017 73.043 306.295 73.8047 306.852 74.5078C307.408 75.1816 308.097 75.5186 308.917 75.5186C309.532 75.5186 310.162 75.3428 310.807 74.9912C311.48 74.6396 312.11 74.1416 312.696 73.4971C313.312 72.8525 313.854 72.1055 314.322 71.2559C314.791 70.4062 315.143 69.4688 315.377 68.4434ZM357.828 21.3779L356.729 84.5273H348.292V80.0449C347.442 81.3047 346.622 82.2861 345.831 82.9893C345.04 83.6631 344.337 84.1611 343.722 84.4834C342.989 84.8643 342.315 85.0986 341.7 85.1865C340.206 85.1865 338.727 84.7471 337.262 83.8682C335.797 82.96 334.479 81.4658 333.307 79.3857C332.164 77.3057 331.227 74.5811 330.494 71.2119C329.762 67.8135 329.396 63.6094 329.396 58.5996C329.396 54.7617 329.703 51.3926 330.318 48.4922C330.963 45.5625 331.812 43.1162 332.867 41.1533C333.922 39.1904 335.138 37.7109 336.515 36.7148C337.892 35.7188 339.327 35.2207 340.821 35.2207C341.612 35.2793 342.403 35.4844 343.194 35.8359C343.868 36.1582 344.615 36.6416 345.436 37.2861C346.256 37.9307 347.032 38.8389 347.765 40.0107L347.193 21.8174L357.828 21.3779ZM348.556 62.7744C348.497 60.7822 348.424 58.7461 348.336 56.666C348.277 54.5859 348.087 52.6963 347.765 50.9971C347.442 49.2686 346.944 47.8623 346.271 46.7783C345.626 45.665 344.703 45.1084 343.502 45.1084C342.389 45.1084 341.51 45.5625 340.865 46.4707C340.25 47.3789 339.781 48.5508 339.459 49.9863C339.166 51.4219 338.99 53.0039 338.932 54.7324C338.873 56.4609 338.844 58.1455 338.844 59.7861C338.844 60.9287 338.858 62.1299 338.888 63.3896C338.946 64.6494 339.034 65.9092 339.151 67.1689C339.269 68.3994 339.444 69.5713 339.679 70.6846C339.913 71.7979 340.206 72.7939 340.558 73.6729C340.909 74.5225 341.334 75.1963 341.832 75.6943C342.359 76.1924 342.975 76.4414 343.678 76.4414C344.557 76.4414 345.304 76.0898 345.919 75.3867C346.534 74.6543 347.032 73.6729 347.413 72.4424C347.823 71.2119 348.116 69.7764 348.292 68.1357C348.468 66.4658 348.556 64.6787 348.556 62.7744ZM388.897 56.0068C388.897 60.6357 388.868 65.2646 388.81 69.8936C388.78 74.5225 388.692 79.3418 388.546 84.3516L380.899 83.9121V77.9795C380.021 79.5615 379.024 80.7773 377.911 81.627C376.798 82.4473 375.743 83.0625 374.747 83.4727C373.575 83.9414 372.418 84.2051 371.275 84.2637C369.869 84.2637 368.551 83.9561 367.32 83.3408C366.09 82.6963 365.021 81.8467 364.112 80.792C363.204 79.7373 362.486 78.5361 361.959 77.1885C361.461 75.8115 361.212 74.3906 361.212 72.9258C361.212 71.2559 361.563 69.6152 362.267 68.0039C362.999 66.3633 364.229 64.8838 365.958 63.5654C368.272 61.7783 370.279 60.2842 371.979 59.083C373.678 57.8818 375.084 56.7979 376.197 55.8311C377.34 54.835 378.175 53.8975 378.702 53.0186C379.259 52.1104 379.537 51.0703 379.537 49.8984C379.537 47.9648 379.215 46.5293 378.57 45.5918C377.926 44.625 377.076 44.1416 376.021 44.1416C375.377 44.1416 374.82 44.3174 374.352 44.6689C373.912 44.9912 373.546 45.4307 373.253 45.9873C372.989 46.5146 372.784 47.1152 372.638 47.7891C372.521 48.4336 372.462 49.0781 372.462 49.7227C372.462 50.1621 372.477 50.6455 372.506 51.1729C372.564 51.7002 372.667 52.2568 372.813 52.8428L362.706 53.0186C362.647 52.5205 362.604 52.0518 362.574 51.6123C362.545 51.1436 362.53 50.6895 362.53 50.25C362.53 48.4336 362.838 46.6465 363.453 44.8887C364.068 43.1016 364.962 41.5195 366.134 40.1426C367.335 38.7363 368.785 37.6084 370.484 36.7588C372.184 35.9092 374.132 35.4844 376.329 35.4844C379.171 35.4844 381.412 36.085 383.053 37.2861C384.723 38.458 385.982 40.0107 386.832 41.9443C387.711 43.8779 388.268 46.0752 388.502 48.5361C388.766 50.9678 388.897 53.458 388.897 56.0068ZM379.01 68.4434C379.156 67.7109 379.288 66.876 379.405 65.9385C379.522 65.1475 379.625 64.1953 379.713 63.082C379.801 61.9395 379.874 60.665 379.933 59.2588C379.464 59.9033 379.01 60.4746 378.57 60.9727C378.131 61.4707 377.721 61.9102 377.34 62.291C376.9 62.7305 376.49 63.126 376.109 63.4775C375.436 64.0342 374.718 64.6641 373.956 65.3672C373.194 66.041 372.491 66.7588 371.847 67.5205C371.231 68.2822 370.704 69.0732 370.265 69.8936C369.854 70.6846 369.649 71.4609 369.649 72.2227C369.649 73.043 369.928 73.8047 370.484 74.5078C371.041 75.1816 371.729 75.5186 372.55 75.5186C373.165 75.5186 373.795 75.3428 374.439 74.9912C375.113 74.6396 375.743 74.1416 376.329 73.4971C376.944 72.8525 377.486 72.1055 377.955 71.2559C378.424 70.4062 378.775 69.4688 379.01 68.4434ZM426.603 84.3516C426.456 82.3301 426.31 80.2939 426.163 78.2432C426.046 76.1924 425.899 74.127 425.724 72.0469C424.435 71.959 423.189 71.8711 421.988 71.7832C420.787 71.6953 419.571 71.6514 418.341 71.6514H417.77C417.623 73.7607 417.491 75.8408 417.374 77.8916C417.257 79.9424 417.154 81.9785 417.066 84L406.08 83.8242C407.896 73.3652 409.537 62.9355 411.002 52.5352C412.467 42.1348 413.712 31.6465 414.737 21.0703L427.965 21.29C429.078 31.749 430.411 42.1494 431.964 52.4912C433.546 62.8037 435.392 73.1895 437.501 83.6484L426.603 84.3516ZM421.461 32.1445C420.875 37.5352 420.318 42.9111 419.791 48.2725C419.264 53.6338 418.78 59.0391 418.341 64.4883C418.956 64.5469 419.586 64.5762 420.23 64.5762C420.875 64.5762 421.534 64.5762 422.208 64.5762H425.064C424.566 59.127 424.01 53.7217 423.395 48.3604C422.779 42.999 422.135 37.5938 421.461 32.1445ZM457.54 98.9414L457.892 80.2207C457.101 81.3926 456.251 82.3008 455.343 82.9453C454.435 83.5605 453.6 84.0146 452.838 84.3076C451.93 84.6299 451.036 84.8203 450.157 84.8789C448.663 84.8789 447.228 84.4248 445.851 83.5166C444.474 82.5791 443.258 81.1729 442.203 79.2979C441.148 77.3936 440.299 75.0205 439.654 72.1787C439.039 69.3369 438.731 65.9824 438.731 62.1152C438.731 57.252 439.083 53.1357 439.786 49.7666C440.489 46.3682 441.412 43.6289 442.555 41.5488C443.697 39.4395 444.986 37.916 446.422 36.9785C447.857 36.041 449.308 35.5723 450.772 35.5723C451.769 35.5723 452.662 35.7334 453.453 36.0557C454.244 36.3486 454.947 36.7734 455.562 37.3301C456.178 37.8867 456.72 38.5312 457.188 39.2637C457.657 39.9961 458.067 40.8018 458.419 41.6807V37.374L466.153 37.4619L467.252 99.3809L457.54 98.9414ZM457.892 60.1377C457.892 59.7275 457.892 59.0537 457.892 58.1162C457.892 57.1494 457.848 56.0801 457.76 54.9082C457.672 53.7363 457.54 52.5352 457.364 51.3047C457.188 50.0449 456.91 48.9023 456.529 47.877C456.178 46.8223 455.724 45.9727 455.167 45.3281C454.61 44.6543 453.922 44.3174 453.102 44.3174C452.193 44.3174 451.417 44.7568 450.772 45.6357C450.157 46.5146 449.659 47.6572 449.278 49.0635C448.897 50.4697 448.619 52.0371 448.443 53.7656C448.268 55.4941 448.18 57.208 448.18 58.9072C448.18 60.5479 448.194 62.3057 448.224 64.1807C448.253 66.0557 448.399 67.7988 448.663 69.4102C448.927 71.0215 449.366 72.3545 449.981 73.4092C450.626 74.4639 451.549 74.9912 452.75 74.9912C453.57 74.9912 454.259 74.7715 454.815 74.332C455.372 73.8633 455.826 73.248 456.178 72.4863C456.559 71.6953 456.852 70.8018 457.057 69.8057C457.291 68.7803 457.452 67.7256 457.54 66.6416C457.657 65.5283 457.73 64.415 457.76 63.3018C457.818 62.1885 457.862 61.1338 457.892 60.1377ZM499.859 40.626C499.625 45.3428 499.464 50.0156 499.376 54.6445C499.288 59.2441 499.244 63.873 499.244 68.5312C499.244 71.2852 499.244 74.0098 499.244 76.7051C499.273 79.4004 499.332 82.125 499.42 84.8789L490.675 85.0986V79.6055C489.796 81.041 488.814 82.1396 487.73 82.9014C486.646 83.6631 485.606 84.2051 484.61 84.5273C483.644 84.8789 482.809 85.0693 482.105 85.0986C481.402 85.1572 480.992 85.1865 480.875 85.1865C479.029 84.8057 477.491 84 476.261 82.7695C475.06 81.5098 474.093 79.957 473.36 78.1113C472.657 76.2363 472.159 74.127 471.866 71.7832C471.573 69.4395 471.427 66.9785 471.427 64.4004C471.427 62.1738 471.515 59.9033 471.69 57.5889C471.866 55.2744 472.086 53.0039 472.35 50.7773C472.613 48.5215 472.906 46.3535 473.229 44.2734C473.551 42.1641 473.873 40.2012 474.195 38.3848L483.775 38.5605C483.512 40.2891 483.233 42.1641 482.94 44.1855C482.677 46.207 482.428 48.2725 482.193 50.3818C481.988 52.4912 481.812 54.6152 481.666 56.7539C481.549 58.8633 481.49 60.8701 481.49 62.7744C481.49 64.5322 481.563 66.1729 481.71 67.6963C481.856 69.2197 482.091 70.5527 482.413 71.6953C482.735 72.8086 483.146 73.6875 483.644 74.332C484.171 74.9473 484.815 75.2549 485.577 75.2549C486.573 75.2549 487.394 74.6543 488.038 73.4531C488.683 72.252 489.181 70.6846 489.532 68.751C489.913 66.7881 490.162 64.5908 490.279 62.1592C490.426 59.7275 490.499 57.2812 490.499 54.8203C490.499 52.9746 490.47 51.2168 490.411 49.5469C490.353 47.877 490.294 46.3828 490.235 45.0645C490.147 43.541 490.06 42.1201 489.972 40.8018L499.859 40.626ZM518.36 25.5967C518.36 26.5049 518.214 27.3545 517.921 28.1455C517.628 28.9072 517.188 29.5811 516.603 30.167C516.017 30.7236 515.27 31.1631 514.361 31.4854C513.482 31.8076 512.442 31.9688 511.241 31.9688C509.923 31.9688 508.81 31.8076 507.901 31.4854C507.022 31.1631 506.29 30.7236 505.704 30.167C505.147 29.5811 504.737 28.9072 504.474 28.1455C504.239 27.3545 504.122 26.5049 504.122 25.5967C504.122 24.7178 504.254 23.8975 504.518 23.1357C504.781 22.3447 505.191 21.6562 505.748 21.0703C506.334 20.4844 507.081 20.0303 507.989 19.708C508.897 19.3564 509.981 19.1807 511.241 19.1807C512.501 19.1807 513.57 19.3564 514.449 19.708C515.357 20.0303 516.09 20.4844 516.646 21.0703C517.232 21.6562 517.657 22.3447 517.921 23.1357C518.214 23.8975 518.36 24.7178 518.36 25.5967ZM515.724 38.3848C515.548 39.9961 515.401 41.7246 515.284 43.5703C515.167 45.416 515.064 47.335 514.977 49.3271C514.889 51.29 514.83 53.2969 514.801 55.3477C514.771 57.3691 514.757 59.3613 514.757 61.3242C514.757 63.6094 514.771 65.8213 514.801 67.96C514.859 70.0693 514.918 72.0176 514.977 73.8047C515.064 75.5918 515.152 77.1738 515.24 78.5508C515.357 79.9277 515.489 80.9971 515.636 81.7588C514.464 81.7588 513.248 81.7881 511.988 81.8467C510.904 81.9053 509.688 81.9785 508.341 82.0664C506.993 82.1543 505.646 82.2861 504.298 82.4619C504.796 77.1885 505.133 72.3691 505.309 68.0039C505.484 63.6094 505.572 59.6689 505.572 56.1826C505.572 53.1943 505.514 50.5869 505.396 48.3604C505.309 46.1045 505.206 44.2002 505.089 42.6475C504.972 40.8311 504.825 39.2783 504.649 37.9893C506.29 38.1943 507.784 38.3262 509.132 38.3848C510.509 38.4434 511.695 38.4727 512.691 38.4727C513.16 38.4727 513.585 38.4727 513.966 38.4727C514.347 38.4727 514.669 38.458 514.933 38.4287C515.255 38.4287 515.519 38.4141 515.724 38.3848ZM531.456 20.2793C530.636 28.3945 529.991 36.583 529.522 44.8447C529.054 53.1064 528.775 61.2363 528.688 69.2344L522.843 69.4102C522.638 61.3535 522.359 53.1797 522.008 44.8887C521.686 36.5977 521.305 28.4238 520.865 20.3672L531.456 20.2793ZM530.665 80.3086C530.665 81.0117 530.519 81.6709 530.226 82.2861C529.962 82.9014 529.596 83.4434 529.127 83.9121C528.688 84.3516 528.146 84.7031 527.501 84.9668C526.886 85.2305 526.227 85.3623 525.523 85.3623C524.82 85.3623 524.161 85.2305 523.546 84.9668C522.96 84.7031 522.433 84.3516 521.964 83.9121C521.495 83.4434 521.129 82.9014 520.865 82.2861C520.602 81.6709 520.47 81.0117 520.47 80.3086C520.47 79.6055 520.602 78.9609 520.865 78.375C521.129 77.7598 521.495 77.2178 521.964 76.749C522.433 76.2803 522.96 75.9141 523.546 75.6504C524.161 75.3867 524.82 75.2549 525.523 75.2549C526.227 75.2549 526.886 75.3867 527.501 75.6504C528.146 75.9141 528.688 76.2803 529.127 76.749C529.596 77.2178 529.962 77.7598 530.226 78.375C530.519 78.9609 530.665 79.6055 530.665 80.3086ZM24.8545 133.079C23.917 133.021 22.833 132.977 21.6025 132.947C20.4014 132.918 19.1123 132.903 17.7354 132.903C17.5303 135.628 17.3545 138.455 17.208 141.385C17.0908 144.285 16.9883 147.244 16.9004 150.262C16.8125 153.25 16.7539 156.268 16.7246 159.314C16.6953 162.332 16.6807 165.32 16.6807 168.279C16.6807 171.648 16.6953 174.915 16.7246 178.079C16.7832 181.214 16.8857 184.246 17.0322 187.176H7.67188C7.93555 182.195 8.14062 176.893 8.28711 171.268C8.43359 165.643 8.50684 159.974 8.50684 154.261C8.50684 150.54 8.46289 146.907 8.375 143.362C8.28711 139.817 8.19922 136.36 8.11133 132.991C6.70508 132.991 5.37207 133.006 4.1123 133.035C2.85254 133.064 1.72461 133.108 0.728516 133.167L0.816406 123.982C1.87109 124.07 3.05762 124.144 4.37598 124.202C5.69434 124.231 7.07129 124.261 8.50684 124.29C9.97168 124.319 11.4658 124.349 12.9893 124.378C14.5127 124.378 16.0068 124.378 17.4717 124.378C18.9365 124.378 20.3135 124.378 21.6025 124.378C22.9209 124.378 24.0928 124.349 25.1182 124.29L24.8545 133.079ZM52.1006 185.813C49.376 186.751 46.8857 187.366 44.6299 187.659C42.4033 187.952 40.5723 188.099 39.1367 188.099C37.3496 188.099 35.7822 187.747 34.4346 187.044C33.0869 186.341 31.915 185.403 30.9189 184.231C29.9521 183.06 29.1465 181.712 28.502 180.188C27.8574 178.636 27.3447 177.01 26.9639 175.311C26.583 173.611 26.3047 171.897 26.1289 170.169C25.9824 168.411 25.9092 166.756 25.9092 165.203C25.9092 161.336 26.2168 157.776 26.832 154.524C27.4473 151.243 28.3408 148.416 29.5127 146.043C30.6846 143.67 32.1348 141.824 33.8633 140.506C35.5918 139.158 37.5547 138.484 39.752 138.484C41.5684 138.484 43.2236 138.938 44.7178 139.847C46.2119 140.755 47.4863 142.146 48.541 144.021C49.5957 145.896 50.4014 148.284 50.958 151.185C51.5439 154.056 51.8369 157.469 51.8369 161.424C51.8369 162.537 51.8076 163.665 51.749 164.808C51.7197 165.95 51.6465 167.137 51.5293 168.367L35.9727 170.433C36.0898 171.517 36.2656 172.542 36.5 173.509C36.7637 174.476 37.1006 175.34 37.5107 176.102C37.9502 176.834 38.4629 177.42 39.0488 177.859C39.6348 178.299 40.3525 178.519 41.2021 178.519C42.7842 178.519 44.3662 178.431 45.9482 178.255C47.5303 178.05 49.1855 177.815 50.9141 177.552L52.1006 185.813ZM35.709 162.962L43.0039 161.6V159.93C43.0039 157.439 42.8135 155.521 42.4326 154.173C42.0518 152.796 41.6416 151.785 41.2021 151.141C40.6748 150.379 40.0742 149.939 39.4004 149.822C38.5508 149.91 37.877 150.306 37.3789 151.009C36.8809 151.712 36.5 152.62 36.2363 153.733C36.002 154.817 35.8555 156.048 35.7969 157.425C35.7383 158.802 35.709 160.193 35.709 161.6V162.962ZM74.0732 186.736C74.7178 182.02 75.1719 177.244 75.4355 172.41C75.7285 167.576 75.875 162.508 75.875 157.205C75.875 155.418 75.7578 153.997 75.5234 152.942C75.2891 151.858 74.9814 151.038 74.6006 150.481C74.2197 149.896 73.8096 149.529 73.3701 149.383C72.9307 149.207 72.5059 149.119 72.0957 149.119C71.5098 149.119 70.9531 149.222 70.4258 149.427C69.9277 149.632 69.459 150.027 69.0195 150.613C68.5801 151.199 68.1699 152.02 67.7891 153.074C67.4375 154.129 67.1299 155.521 66.8662 157.249C66.6025 158.978 66.3975 161.087 66.251 163.577C66.1338 166.038 66.0752 168.982 66.0752 172.41C66.0752 173.641 66.0752 174.93 66.0752 176.277C66.0752 177.596 66.0752 178.855 66.0752 180.057C66.1045 181.258 66.1191 182.327 66.1191 183.265C66.1484 184.173 66.1924 184.817 66.251 185.198L56.3193 185.11C56.4072 182.444 56.4658 180.071 56.4951 177.991C56.5537 175.882 56.5977 173.948 56.627 172.19C56.6562 170.433 56.6709 168.792 56.6709 167.269C56.7002 165.716 56.7148 164.192 56.7148 162.698C56.7148 161.351 56.7002 159.974 56.6709 158.567C56.6709 157.132 56.6562 155.594 56.627 153.953C56.627 152.312 56.5977 150.525 56.5391 148.592C56.5098 146.629 56.4658 144.461 56.4072 142.088L66.6904 141.824L66.5146 146.307C67.3057 144.812 68.1553 143.626 69.0635 142.747C69.9717 141.839 70.8652 141.136 71.7441 140.638C72.6523 140.14 73.5312 139.817 74.3809 139.671C75.2305 139.495 75.9922 139.407 76.666 139.407C78.4824 139.407 79.9766 140.037 81.1484 141.297C82.3203 142.557 83.2432 144.241 83.917 146.351C84.6201 148.431 85.1035 150.818 85.3672 153.514C85.6309 156.209 85.7627 159.007 85.7627 161.907C85.7627 164.017 85.7041 166.155 85.5869 168.323C85.499 170.491 85.3818 172.63 85.2354 174.739C85.1182 176.819 84.9717 178.841 84.7959 180.804C84.6494 182.737 84.5176 184.539 84.4004 186.209L74.0732 186.736ZM106.109 127.674C105.875 130.047 105.67 132.361 105.494 134.617C105.318 136.844 105.157 139.07 105.011 141.297C106.124 141.238 107.223 141.194 108.307 141.165C109.42 141.106 110.548 141.019 111.69 140.901L111.383 149.822C110.27 149.764 109.127 149.734 107.955 149.734C106.812 149.734 105.685 149.734 104.571 149.734C104.337 153.953 104.161 158.084 104.044 162.127C103.956 166.141 103.912 170.198 103.912 174.3C103.912 176.409 103.927 178.533 103.956 180.672C104.015 182.781 104.073 184.92 104.132 187.088L94.4639 187.264C94.6689 180.965 94.8447 174.739 94.9912 168.587C95.1377 162.405 95.2109 156.18 95.2109 149.91C94.0977 149.969 92.9697 150.027 91.8271 150.086C90.6846 150.115 89.5566 150.174 88.4434 150.262L88.7949 140.638C89.8203 140.784 90.875 140.901 91.959 140.989C93.043 141.077 94.0977 141.15 95.123 141.209C95.123 138.924 95.0938 136.683 95.0352 134.485C95.0059 132.288 94.9473 130.047 94.8594 127.762L106.109 127.674ZM139.024 185.813C136.3 186.751 133.81 187.366 131.554 187.659C129.327 187.952 127.496 188.099 126.061 188.099C124.273 188.099 122.706 187.747 121.358 187.044C120.011 186.341 118.839 185.403 117.843 184.231C116.876 183.06 116.07 181.712 115.426 180.188C114.781 178.636 114.269 177.01 113.888 175.311C113.507 173.611 113.229 171.897 113.053 170.169C112.906 168.411 112.833 166.756 112.833 165.203C112.833 161.336 113.141 157.776 113.756 154.524C114.371 151.243 115.265 148.416 116.437 146.043C117.608 143.67 119.059 141.824 120.787 140.506C122.516 139.158 124.479 138.484 126.676 138.484C128.492 138.484 130.147 138.938 131.642 139.847C133.136 140.755 134.41 142.146 135.465 144.021C136.52 145.896 137.325 148.284 137.882 151.185C138.468 154.056 138.761 157.469 138.761 161.424C138.761 162.537 138.731 163.665 138.673 164.808C138.644 165.95 138.57 167.137 138.453 168.367L122.896 170.433C123.014 171.517 123.189 172.542 123.424 173.509C123.688 174.476 124.024 175.34 124.435 176.102C124.874 176.834 125.387 177.42 125.973 177.859C126.559 178.299 127.276 178.519 128.126 178.519C129.708 178.519 131.29 178.431 132.872 178.255C134.454 178.05 136.109 177.815 137.838 177.552L139.024 185.813ZM122.633 162.962L129.928 161.6V159.93C129.928 157.439 129.737 155.521 129.356 154.173C128.976 152.796 128.565 151.785 128.126 151.141C127.599 150.379 126.998 149.939 126.324 149.822C125.475 149.91 124.801 150.306 124.303 151.009C123.805 151.712 123.424 152.62 123.16 153.733C122.926 154.817 122.779 156.048 122.721 157.425C122.662 158.802 122.633 160.193 122.633 161.6V162.962ZM175.675 187.352C175.528 185.33 175.382 183.294 175.235 181.243C175.118 179.192 174.972 177.127 174.796 175.047C173.507 174.959 172.262 174.871 171.061 174.783C169.859 174.695 168.644 174.651 167.413 174.651H166.842C166.695 176.761 166.563 178.841 166.446 180.892C166.329 182.942 166.227 184.979 166.139 187L155.152 186.824C156.969 176.365 158.609 165.936 160.074 155.535C161.539 145.135 162.784 134.646 163.81 124.07L177.037 124.29C178.15 134.749 179.483 145.149 181.036 155.491C182.618 165.804 184.464 176.189 186.573 186.648L175.675 187.352ZM170.533 135.145C169.947 140.535 169.391 145.911 168.863 151.272C168.336 156.634 167.853 162.039 167.413 167.488C168.028 167.547 168.658 167.576 169.303 167.576C169.947 167.576 170.606 167.576 171.28 167.576H174.137C173.639 162.127 173.082 156.722 172.467 151.36C171.852 145.999 171.207 140.594 170.533 135.145ZM216.236 124.378L215.138 187.527H206.7V183.045C205.851 184.305 205.03 185.286 204.239 185.989C203.448 186.663 202.745 187.161 202.13 187.483C201.397 187.864 200.724 188.099 200.108 188.187C198.614 188.187 197.135 187.747 195.67 186.868C194.205 185.96 192.887 184.466 191.715 182.386C190.572 180.306 189.635 177.581 188.902 174.212C188.17 170.813 187.804 166.609 187.804 161.6C187.804 157.762 188.111 154.393 188.727 151.492C189.371 148.562 190.221 146.116 191.275 144.153C192.33 142.19 193.546 140.711 194.923 139.715C196.3 138.719 197.735 138.221 199.229 138.221C200.021 138.279 200.812 138.484 201.603 138.836C202.276 139.158 203.023 139.642 203.844 140.286C204.664 140.931 205.44 141.839 206.173 143.011L205.602 124.817L216.236 124.378ZM206.964 165.774C206.905 163.782 206.832 161.746 206.744 159.666C206.686 157.586 206.495 155.696 206.173 153.997C205.851 152.269 205.353 150.862 204.679 149.778C204.034 148.665 203.111 148.108 201.91 148.108C200.797 148.108 199.918 148.562 199.273 149.471C198.658 150.379 198.189 151.551 197.867 152.986C197.574 154.422 197.398 156.004 197.34 157.732C197.281 159.461 197.252 161.146 197.252 162.786C197.252 163.929 197.267 165.13 197.296 166.39C197.354 167.649 197.442 168.909 197.56 170.169C197.677 171.399 197.853 172.571 198.087 173.685C198.321 174.798 198.614 175.794 198.966 176.673C199.317 177.522 199.742 178.196 200.24 178.694C200.768 179.192 201.383 179.441 202.086 179.441C202.965 179.441 203.712 179.09 204.327 178.387C204.942 177.654 205.44 176.673 205.821 175.442C206.231 174.212 206.524 172.776 206.7 171.136C206.876 169.466 206.964 167.679 206.964 165.774ZM234.737 128.597C234.737 129.505 234.591 130.354 234.298 131.146C234.005 131.907 233.565 132.581 232.979 133.167C232.394 133.724 231.646 134.163 230.738 134.485C229.859 134.808 228.819 134.969 227.618 134.969C226.3 134.969 225.187 134.808 224.278 134.485C223.399 134.163 222.667 133.724 222.081 133.167C221.524 132.581 221.114 131.907 220.851 131.146C220.616 130.354 220.499 129.505 220.499 128.597C220.499 127.718 220.631 126.897 220.895 126.136C221.158 125.345 221.568 124.656 222.125 124.07C222.711 123.484 223.458 123.03 224.366 122.708C225.274 122.356 226.358 122.181 227.618 122.181C228.878 122.181 229.947 122.356 230.826 122.708C231.734 123.03 232.467 123.484 233.023 124.07C233.609 124.656 234.034 125.345 234.298 126.136C234.591 126.897 234.737 127.718 234.737 128.597ZM232.101 141.385C231.925 142.996 231.778 144.725 231.661 146.57C231.544 148.416 231.441 150.335 231.354 152.327C231.266 154.29 231.207 156.297 231.178 158.348C231.148 160.369 231.134 162.361 231.134 164.324C231.134 166.609 231.148 168.821 231.178 170.96C231.236 173.069 231.295 175.018 231.354 176.805C231.441 178.592 231.529 180.174 231.617 181.551C231.734 182.928 231.866 183.997 232.013 184.759C230.841 184.759 229.625 184.788 228.365 184.847C227.281 184.905 226.065 184.979 224.718 185.066C223.37 185.154 222.022 185.286 220.675 185.462C221.173 180.188 221.51 175.369 221.686 171.004C221.861 166.609 221.949 162.669 221.949 159.183C221.949 156.194 221.891 153.587 221.773 151.36C221.686 149.104 221.583 147.2 221.466 145.647C221.349 143.831 221.202 142.278 221.026 140.989C222.667 141.194 224.161 141.326 225.509 141.385C226.886 141.443 228.072 141.473 229.068 141.473C229.537 141.473 229.962 141.473 230.343 141.473C230.724 141.473 231.046 141.458 231.31 141.429C231.632 141.429 231.896 141.414 232.101 141.385ZM256.93 150.921C256.52 150.394 256.021 149.983 255.436 149.69C254.85 149.397 254.264 149.178 253.678 149.031C253.092 148.885 252.55 148.797 252.052 148.768C251.554 148.709 251.202 148.68 250.997 148.68C250.118 148.68 249.327 149.061 248.624 149.822C247.95 150.584 247.364 151.668 246.866 153.074C246.397 154.48 246.031 156.194 245.768 158.216C245.533 160.208 245.416 162.449 245.416 164.939C245.416 167.342 245.577 169.539 245.899 171.531C246.251 173.494 246.852 175.193 247.701 176.629C248.551 178.035 249.693 179.163 251.129 180.013C252.564 180.862 254.381 181.36 256.578 181.507L256.314 189.065C255.816 189.124 255.318 189.168 254.82 189.197C254.352 189.227 253.883 189.241 253.414 189.241C250.895 189.241 248.712 188.919 246.866 188.274C245.05 187.659 243.497 186.78 242.208 185.638C240.919 184.495 239.864 183.147 239.044 181.595C238.253 180.013 237.623 178.299 237.154 176.453C236.686 174.578 236.363 172.601 236.188 170.521C236.041 168.411 235.968 166.258 235.968 164.061C235.968 162.537 235.997 160.853 236.056 159.007C236.144 157.132 236.319 155.257 236.583 153.382C236.876 151.478 237.301 149.632 237.857 147.845C238.443 146.058 239.234 144.476 240.23 143.099C241.227 141.692 242.472 140.579 243.966 139.759C245.489 138.909 247.32 138.484 249.459 138.484C250.396 138.484 251.305 138.558 252.184 138.704C253.062 138.851 253.868 139.041 254.601 139.275C255.333 139.48 255.963 139.715 256.49 139.979C257.018 140.213 257.398 140.433 257.633 140.638L256.93 150.921ZM274.552 128.597C274.552 129.505 274.405 130.354 274.112 131.146C273.819 131.907 273.38 132.581 272.794 133.167C272.208 133.724 271.461 134.163 270.553 134.485C269.674 134.808 268.634 134.969 267.433 134.969C266.114 134.969 265.001 134.808 264.093 134.485C263.214 134.163 262.481 133.724 261.896 133.167C261.339 132.581 260.929 131.907 260.665 131.146C260.431 130.354 260.313 129.505 260.313 128.597C260.313 127.718 260.445 126.897 260.709 126.136C260.973 125.345 261.383 124.656 261.939 124.07C262.525 123.484 263.272 123.03 264.181 122.708C265.089 122.356 266.173 122.181 267.433 122.181C268.692 122.181 269.762 122.356 270.641 122.708C271.549 123.03 272.281 123.484 272.838 124.07C273.424 124.656 273.849 125.345 274.112 126.136C274.405 126.897 274.552 127.718 274.552 128.597ZM271.915 141.385C271.739 142.996 271.593 144.725 271.476 146.57C271.358 148.416 271.256 150.335 271.168 152.327C271.08 154.29 271.021 156.297 270.992 158.348C270.963 160.369 270.948 162.361 270.948 164.324C270.948 166.609 270.963 168.821 270.992 170.96C271.051 173.069 271.109 175.018 271.168 176.805C271.256 178.592 271.344 180.174 271.432 181.551C271.549 182.928 271.681 183.997 271.827 184.759C270.655 184.759 269.439 184.788 268.18 184.847C267.096 184.905 265.88 184.979 264.532 185.066C263.185 185.154 261.837 185.286 260.489 185.462C260.987 180.188 261.324 175.369 261.5 171.004C261.676 166.609 261.764 162.669 261.764 159.183C261.764 156.194 261.705 153.587 261.588 151.36C261.5 149.104 261.397 147.2 261.28 145.647C261.163 143.831 261.017 142.278 260.841 140.989C262.481 141.194 263.976 141.326 265.323 141.385C266.7 141.443 267.887 141.473 268.883 141.473C269.352 141.473 269.776 141.473 270.157 141.473C270.538 141.473 270.86 141.458 271.124 141.429C271.446 141.429 271.71 141.414 271.915 141.385ZM302.589 161.819C302.589 165.394 302.428 168.528 302.105 171.224C301.783 173.919 301.314 176.263 300.699 178.255C300.113 180.218 299.396 181.858 298.546 183.177C297.726 184.466 296.803 185.506 295.777 186.297C294.781 187.088 293.697 187.645 292.525 187.967C291.354 188.289 290.152 188.45 288.922 188.45C287.691 188.45 286.505 188.318 285.362 188.055C284.249 187.791 283.209 187.308 282.242 186.604C281.275 185.901 280.382 184.949 279.562 183.748C278.771 182.547 278.097 181.009 277.54 179.134C276.983 177.259 276.544 175.018 276.222 172.41C275.929 169.803 275.782 166.741 275.782 163.226C275.782 157.952 276.163 153.631 276.925 150.262C277.716 146.893 278.741 144.241 280.001 142.308C281.261 140.345 282.696 138.997 284.308 138.265C285.919 137.503 287.574 137.122 289.273 137.122C290.357 137.122 291.441 137.239 292.525 137.474C293.639 137.679 294.679 138.104 295.646 138.748C296.642 139.393 297.564 140.286 298.414 141.429C299.264 142.571 299.996 144.065 300.611 145.911C301.227 147.728 301.71 149.939 302.062 152.547C302.413 155.154 302.589 158.245 302.589 161.819ZM293.141 162.171C293.141 159.358 293.038 157.059 292.833 155.271C292.628 153.455 292.35 152.02 291.998 150.965C291.646 149.91 291.222 149.192 290.724 148.812C290.226 148.401 289.684 148.196 289.098 148.196C288.424 148.196 287.838 148.489 287.34 149.075C286.842 149.632 286.417 150.54 286.065 151.8C285.743 153.06 285.494 154.686 285.318 156.678C285.143 158.641 285.055 161.043 285.055 163.885C285.055 166.756 285.157 169.144 285.362 171.048C285.597 172.923 285.904 174.432 286.285 175.574C286.695 176.688 287.164 177.479 287.691 177.947C288.248 178.416 288.834 178.65 289.449 178.65C290.738 178.65 291.676 177.317 292.262 174.651C292.848 171.985 293.141 167.825 293.141 162.171ZM324.649 186.736C325.294 182.02 325.748 177.244 326.012 172.41C326.305 167.576 326.451 162.508 326.451 157.205C326.451 155.418 326.334 153.997 326.1 152.942C325.865 151.858 325.558 151.038 325.177 150.481C324.796 149.896 324.386 149.529 323.946 149.383C323.507 149.207 323.082 149.119 322.672 149.119C322.086 149.119 321.529 149.222 321.002 149.427C320.504 149.632 320.035 150.027 319.596 150.613C319.156 151.199 318.746 152.02 318.365 153.074C318.014 154.129 317.706 155.521 317.442 157.249C317.179 158.978 316.974 161.087 316.827 163.577C316.71 166.038 316.651 168.982 316.651 172.41C316.651 173.641 316.651 174.93 316.651 176.277C316.651 177.596 316.651 178.855 316.651 180.057C316.681 181.258 316.695 182.327 316.695 183.265C316.725 184.173 316.769 184.817 316.827 185.198L306.896 185.11C306.983 182.444 307.042 180.071 307.071 177.991C307.13 175.882 307.174 173.948 307.203 172.19C307.232 170.433 307.247 168.792 307.247 167.269C307.276 165.716 307.291 164.192 307.291 162.698C307.291 161.351 307.276 159.974 307.247 158.567C307.247 157.132 307.232 155.594 307.203 153.953C307.203 152.312 307.174 150.525 307.115 148.592C307.086 146.629 307.042 144.461 306.983 142.088L317.267 141.824L317.091 146.307C317.882 144.812 318.731 143.626 319.64 142.747C320.548 141.839 321.441 141.136 322.32 140.638C323.229 140.14 324.107 139.817 324.957 139.671C325.807 139.495 326.568 139.407 327.242 139.407C329.059 139.407 330.553 140.037 331.725 141.297C332.896 142.557 333.819 144.241 334.493 146.351C335.196 148.431 335.68 150.818 335.943 153.514C336.207 156.209 336.339 159.007 336.339 161.907C336.339 164.017 336.28 166.155 336.163 168.323C336.075 170.491 335.958 172.63 335.812 174.739C335.694 176.819 335.548 178.841 335.372 180.804C335.226 182.737 335.094 184.539 334.977 186.209L324.649 186.736ZM367.364 159.007C367.364 163.636 367.335 168.265 367.276 172.894C367.247 177.522 367.159 182.342 367.013 187.352L359.366 186.912V180.979C358.487 182.562 357.491 183.777 356.378 184.627C355.265 185.447 354.21 186.062 353.214 186.473C352.042 186.941 350.885 187.205 349.742 187.264C348.336 187.264 347.018 186.956 345.787 186.341C344.557 185.696 343.487 184.847 342.579 183.792C341.671 182.737 340.953 181.536 340.426 180.188C339.928 178.812 339.679 177.391 339.679 175.926C339.679 174.256 340.03 172.615 340.733 171.004C341.466 169.363 342.696 167.884 344.425 166.565C346.739 164.778 348.746 163.284 350.445 162.083C352.145 160.882 353.551 159.798 354.664 158.831C355.807 157.835 356.642 156.897 357.169 156.019C357.726 155.11 358.004 154.07 358.004 152.898C358.004 150.965 357.682 149.529 357.037 148.592C356.393 147.625 355.543 147.142 354.488 147.142C353.844 147.142 353.287 147.317 352.818 147.669C352.379 147.991 352.013 148.431 351.72 148.987C351.456 149.515 351.251 150.115 351.104 150.789C350.987 151.434 350.929 152.078 350.929 152.723C350.929 153.162 350.943 153.646 350.973 154.173C351.031 154.7 351.134 155.257 351.28 155.843L341.173 156.019C341.114 155.521 341.07 155.052 341.041 154.612C341.012 154.144 340.997 153.689 340.997 153.25C340.997 151.434 341.305 149.646 341.92 147.889C342.535 146.102 343.429 144.52 344.601 143.143C345.802 141.736 347.252 140.608 348.951 139.759C350.65 138.909 352.599 138.484 354.796 138.484C357.638 138.484 359.879 139.085 361.52 140.286C363.189 141.458 364.449 143.011 365.299 144.944C366.178 146.878 366.734 149.075 366.969 151.536C367.232 153.968 367.364 156.458 367.364 159.007ZM357.477 171.443C357.623 170.711 357.755 169.876 357.872 168.938C357.989 168.147 358.092 167.195 358.18 166.082C358.268 164.939 358.341 163.665 358.399 162.259C357.931 162.903 357.477 163.475 357.037 163.973C356.598 164.471 356.188 164.91 355.807 165.291C355.367 165.73 354.957 166.126 354.576 166.478C353.902 167.034 353.185 167.664 352.423 168.367C351.661 169.041 350.958 169.759 350.313 170.521C349.698 171.282 349.171 172.073 348.731 172.894C348.321 173.685 348.116 174.461 348.116 175.223C348.116 176.043 348.395 176.805 348.951 177.508C349.508 178.182 350.196 178.519 351.017 178.519C351.632 178.519 352.262 178.343 352.906 177.991C353.58 177.64 354.21 177.142 354.796 176.497C355.411 175.853 355.953 175.105 356.422 174.256C356.891 173.406 357.242 172.469 357.477 171.443ZM398.829 159.93C397.892 160.076 396.91 160.252 395.885 160.457C395.006 160.633 394.01 160.867 392.896 161.16C391.783 161.453 390.67 161.79 389.557 162.171C389.85 160.706 390.04 159.432 390.128 158.348C390.245 157.234 390.304 156.224 390.304 155.315C390.304 153.733 390.157 152.503 389.864 151.624C389.601 150.716 389.293 150.042 388.941 149.603C388.59 149.163 388.238 148.899 387.887 148.812C387.564 148.724 387.345 148.68 387.228 148.68C386.29 148.68 385.528 149.075 384.942 149.866C384.356 150.628 383.902 151.653 383.58 152.942C383.258 154.202 383.038 155.652 382.921 157.293C382.804 158.934 382.745 160.618 382.745 162.347C382.745 163.577 382.76 164.808 382.789 166.038C382.818 167.269 382.862 168.499 382.921 169.729L383.536 187L373.385 187.703C373.385 180.643 373.312 174.285 373.165 168.631C373.048 162.947 372.916 158.099 372.77 154.085C372.594 149.397 372.403 145.223 372.198 141.561L380.855 140.989L381.295 145.955C382.057 144.08 382.95 142.601 383.976 141.517C385.03 140.403 386.07 139.583 387.096 139.056C388.15 138.499 389.103 138.147 389.952 138.001C390.831 137.854 391.49 137.781 391.93 137.781C393.424 137.781 394.64 138.265 395.577 139.231C396.515 140.169 397.247 141.385 397.774 142.879C398.302 144.373 398.653 146.014 398.829 147.801C399.034 149.588 399.137 151.316 399.137 152.986C399.137 154.305 399.093 155.564 399.005 156.766C398.946 157.938 398.888 158.992 398.829 159.93ZM444.312 143.626C444.078 148.343 443.917 153.016 443.829 157.645C443.741 162.244 443.697 166.873 443.697 171.531C443.697 174.285 443.697 177.01 443.697 179.705C443.727 182.4 443.785 185.125 443.873 187.879L435.128 188.099V182.605C434.249 184.041 433.268 185.14 432.184 185.901C431.1 186.663 430.06 187.205 429.063 187.527C428.097 187.879 427.262 188.069 426.559 188.099C425.855 188.157 425.445 188.187 425.328 188.187C423.482 187.806 421.944 187 420.714 185.77C419.513 184.51 418.546 182.957 417.813 181.111C417.11 179.236 416.612 177.127 416.319 174.783C416.026 172.439 415.88 169.979 415.88 167.4C415.88 165.174 415.968 162.903 416.144 160.589C416.319 158.274 416.539 156.004 416.803 153.777C417.066 151.521 417.359 149.354 417.682 147.273C418.004 145.164 418.326 143.201 418.648 141.385L428.229 141.561C427.965 143.289 427.687 145.164 427.394 147.186C427.13 149.207 426.881 151.272 426.646 153.382C426.441 155.491 426.266 157.615 426.119 159.754C426.002 161.863 425.943 163.87 425.943 165.774C425.943 167.532 426.017 169.173 426.163 170.696C426.31 172.22 426.544 173.553 426.866 174.695C427.188 175.809 427.599 176.688 428.097 177.332C428.624 177.947 429.269 178.255 430.03 178.255C431.026 178.255 431.847 177.654 432.491 176.453C433.136 175.252 433.634 173.685 433.985 171.751C434.366 169.788 434.615 167.591 434.732 165.159C434.879 162.728 434.952 160.281 434.952 157.82C434.952 155.975 434.923 154.217 434.864 152.547C434.806 150.877 434.747 149.383 434.688 148.064C434.601 146.541 434.513 145.12 434.425 143.802L444.312 143.626ZM476.568 159.095C476.451 162.61 476.334 166.009 476.217 169.29C476.158 170.696 476.1 172.146 476.041 173.641C475.982 175.135 475.909 176.6 475.821 178.035C475.763 179.441 475.704 180.804 475.646 182.122C475.587 183.411 475.528 184.554 475.47 185.55L465.846 186.473C466.08 182.605 466.271 179.222 466.417 176.321C466.563 173.392 466.666 170.887 466.725 168.807C466.812 166.697 466.871 164.939 466.9 163.533C466.93 162.127 466.93 160.999 466.9 160.149C466.9 159.3 466.886 158.67 466.856 158.26C466.856 157.85 466.856 157.586 466.856 157.469C466.856 155.828 466.783 154.495 466.637 153.47C466.52 152.444 466.344 151.639 466.109 151.053C465.875 150.467 465.582 150.071 465.23 149.866C464.908 149.661 464.542 149.559 464.132 149.559C463.604 149.559 463.062 149.661 462.506 149.866C461.979 150.042 461.495 150.423 461.056 151.009C460.646 151.565 460.309 152.371 460.045 153.426C459.781 154.48 459.649 155.887 459.649 157.645C459.649 160.984 459.649 164.251 459.649 167.444C459.679 170.608 459.723 173.465 459.781 176.014C459.811 178.973 459.854 181.8 459.913 184.495L449.454 185.462C449.688 182.356 449.835 179.324 449.894 176.365C449.981 173.406 450.025 170.74 450.025 168.367C450.025 163.914 449.923 159.505 449.718 155.14C449.542 150.745 449.22 146.189 448.751 141.473C450.626 141.414 452.164 141.341 453.365 141.253C454.566 141.165 455.519 141.062 456.222 140.945C457.042 140.828 457.672 140.696 458.111 140.55L458.199 145.867C458.814 144.871 459.488 143.934 460.221 143.055C460.982 142.176 461.773 141.429 462.594 140.813C463.414 140.169 464.264 139.671 465.143 139.319C466.051 138.938 466.974 138.748 467.911 138.748C468.966 138.748 469.889 138.836 470.68 139.012C471.5 139.158 472.203 139.466 472.789 139.935C473.404 140.374 473.917 141.004 474.327 141.824C474.737 142.615 475.089 143.641 475.382 144.9C475.909 144.08 476.48 143.304 477.096 142.571C477.74 141.81 478.429 141.15 479.161 140.594C479.923 140.008 480.729 139.554 481.578 139.231C482.428 138.909 483.365 138.748 484.391 138.748C486.002 138.748 487.364 138.938 488.478 139.319C489.591 139.7 490.484 140.477 491.158 141.648C491.861 142.791 492.359 144.432 492.652 146.57C492.975 148.68 493.136 151.478 493.136 154.964C493.136 159.974 493.019 164.998 492.784 170.037C492.55 175.047 492.301 180.218 492.037 185.55L482.413 186.473C482.765 181.082 482.999 176.556 483.116 172.894C483.263 169.202 483.351 166.229 483.38 163.973C483.409 161.717 483.409 160.091 483.38 159.095C483.351 158.069 483.336 157.498 483.336 157.381C483.336 155.77 483.248 154.451 483.072 153.426C482.926 152.4 482.706 151.609 482.413 151.053C482.149 150.467 481.827 150.071 481.446 149.866C481.095 149.661 480.699 149.559 480.26 149.559C479.996 149.559 479.703 149.588 479.381 149.646C479.059 149.676 478.722 149.822 478.37 150.086C478.019 150.32 477.667 150.701 477.315 151.229C476.993 151.756 476.686 152.488 476.393 153.426C476.48 154.744 476.524 155.916 476.524 156.941C476.554 157.967 476.568 158.685 476.568 159.095ZM524.073 159.007C524.073 163.636 524.044 168.265 523.985 172.894C523.956 177.522 523.868 182.342 523.722 187.352L516.075 186.912V180.979C515.196 182.562 514.2 183.777 513.087 184.627C511.974 185.447 510.919 186.062 509.923 186.473C508.751 186.941 507.594 187.205 506.451 187.264C505.045 187.264 503.727 186.956 502.496 186.341C501.266 185.696 500.196 184.847 499.288 183.792C498.38 182.737 497.662 181.536 497.135 180.188C496.637 178.812 496.388 177.391 496.388 175.926C496.388 174.256 496.739 172.615 497.442 171.004C498.175 169.363 499.405 167.884 501.134 166.565C503.448 164.778 505.455 163.284 507.154 162.083C508.854 160.882 510.26 159.798 511.373 158.831C512.516 157.835 513.351 156.897 513.878 156.019C514.435 155.11 514.713 154.07 514.713 152.898C514.713 150.965 514.391 149.529 513.746 148.592C513.102 147.625 512.252 147.142 511.197 147.142C510.553 147.142 509.996 147.317 509.527 147.669C509.088 147.991 508.722 148.431 508.429 148.987C508.165 149.515 507.96 150.115 507.813 150.789C507.696 151.434 507.638 152.078 507.638 152.723C507.638 153.162 507.652 153.646 507.682 154.173C507.74 154.7 507.843 155.257 507.989 155.843L497.882 156.019C497.823 155.521 497.779 155.052 497.75 154.612C497.721 154.144 497.706 153.689 497.706 153.25C497.706 151.434 498.014 149.646 498.629 147.889C499.244 146.102 500.138 144.52 501.31 143.143C502.511 141.736 503.961 140.608 505.66 139.759C507.359 138.909 509.308 138.484 511.505 138.484C514.347 138.484 516.588 139.085 518.229 140.286C519.898 141.458 521.158 143.011 522.008 144.944C522.887 146.878 523.443 149.075 523.678 151.536C523.941 153.968 524.073 156.458 524.073 159.007ZM514.186 171.443C514.332 170.711 514.464 169.876 514.581 168.938C514.698 168.147 514.801 167.195 514.889 166.082C514.977 164.939 515.05 163.665 515.108 162.259C514.64 162.903 514.186 163.475 513.746 163.973C513.307 164.471 512.896 164.91 512.516 165.291C512.076 165.73 511.666 166.126 511.285 166.478C510.611 167.034 509.894 167.664 509.132 168.367C508.37 169.041 507.667 169.759 507.022 170.521C506.407 171.282 505.88 172.073 505.44 172.894C505.03 173.685 504.825 174.461 504.825 175.223C504.825 176.043 505.104 176.805 505.66 177.508C506.217 178.182 506.905 178.519 507.726 178.519C508.341 178.519 508.971 178.343 509.615 177.991C510.289 177.64 510.919 177.142 511.505 176.497C512.12 175.853 512.662 175.105 513.131 174.256C513.6 173.406 513.951 172.469 514.186 171.443ZM569.161 185.901C568.019 186.429 566.891 186.824 565.777 187.088C564.664 187.381 563.668 187.601 562.789 187.747C561.764 187.894 560.768 187.981 559.801 188.011C558.746 188.011 557.604 187.82 556.373 187.439C555.172 187.059 553.956 186.414 552.726 185.506C551.495 184.568 550.309 183.309 549.166 181.727C548.023 180.115 547.013 178.108 546.134 175.706C545.255 173.274 544.552 170.374 544.024 167.005C543.497 163.636 543.233 159.71 543.233 155.228C543.233 150.745 543.541 146.834 544.156 143.494C544.801 140.154 545.621 137.298 546.617 134.925C547.643 132.522 548.785 130.56 550.045 129.036C551.334 127.483 552.638 126.268 553.956 125.389C555.274 124.48 556.549 123.865 557.779 123.543C559.039 123.191 560.123 123.016 561.031 123.016C561.881 123.045 562.716 123.133 563.536 123.279C564.239 123.426 564.972 123.646 565.733 123.938C566.524 124.231 567.213 124.642 567.799 125.169L566.92 134.002C566.1 133.592 565.323 133.299 564.591 133.123C563.888 132.918 563.214 132.815 562.569 132.815C561.339 132.815 560.24 133.152 559.273 133.826C558.336 134.471 557.516 135.335 556.812 136.419C556.139 137.503 555.553 138.733 555.055 140.11C554.586 141.487 554.205 142.894 553.912 144.329C553.18 147.698 552.77 151.536 552.682 155.843C552.77 160.12 553.194 163.929 553.956 167.269C554.278 168.704 554.674 170.11 555.143 171.487C555.641 172.835 556.241 174.051 556.944 175.135C557.647 176.189 558.468 177.039 559.405 177.684C560.372 178.328 561.485 178.65 562.745 178.65C564.122 178.65 565.719 178.167 567.535 177.2L569.161 185.901ZM598.165 159.007C598.165 163.636 598.136 168.265 598.077 172.894C598.048 177.522 597.96 182.342 597.813 187.352L590.167 186.912V180.979C589.288 182.562 588.292 183.777 587.179 184.627C586.065 185.447 585.011 186.062 584.015 186.473C582.843 186.941 581.686 187.205 580.543 187.264C579.137 187.264 577.818 186.956 576.588 186.341C575.357 185.696 574.288 184.847 573.38 183.792C572.472 182.737 571.754 181.536 571.227 180.188C570.729 178.812 570.479 177.391 570.479 175.926C570.479 174.256 570.831 172.615 571.534 171.004C572.267 169.363 573.497 167.884 575.226 166.565C577.54 164.778 579.547 163.284 581.246 162.083C582.945 160.882 584.352 159.798 585.465 158.831C586.607 157.835 587.442 156.897 587.97 156.019C588.526 155.11 588.805 154.07 588.805 152.898C588.805 150.965 588.482 149.529 587.838 148.592C587.193 147.625 586.344 147.142 585.289 147.142C584.645 147.142 584.088 147.317 583.619 147.669C583.18 147.991 582.813 148.431 582.521 148.987C582.257 149.515 582.052 150.115 581.905 150.789C581.788 151.434 581.729 152.078 581.729 152.723C581.729 153.162 581.744 153.646 581.773 154.173C581.832 154.7 581.935 155.257 582.081 155.843L571.974 156.019C571.915 155.521 571.871 155.052 571.842 154.612C571.812 154.144 571.798 153.689 571.798 153.25C571.798 151.434 572.105 149.646 572.721 147.889C573.336 146.102 574.229 144.52 575.401 143.143C576.603 141.736 578.053 140.608 579.752 139.759C581.451 138.909 583.399 138.484 585.597 138.484C588.438 138.484 590.68 139.085 592.32 140.286C593.99 141.458 595.25 143.011 596.1 144.944C596.979 146.878 597.535 149.075 597.77 151.536C598.033 153.968 598.165 156.458 598.165 159.007ZM588.277 171.443C588.424 170.711 588.556 169.876 588.673 168.938C588.79 168.147 588.893 167.195 588.98 166.082C589.068 164.939 589.142 163.665 589.2 162.259C588.731 162.903 588.277 163.475 587.838 163.973C587.398 164.471 586.988 164.91 586.607 165.291C586.168 165.73 585.758 166.126 585.377 166.478C584.703 167.034 583.985 167.664 583.224 168.367C582.462 169.041 581.759 169.759 581.114 170.521C580.499 171.282 579.972 172.073 579.532 172.894C579.122 173.685 578.917 174.461 578.917 175.223C578.917 176.043 579.195 176.805 579.752 177.508C580.309 178.182 580.997 178.519 581.817 178.519C582.433 178.519 583.062 178.343 583.707 177.991C584.381 177.64 585.011 177.142 585.597 176.497C586.212 175.853 586.754 175.105 587.223 174.256C587.691 173.406 588.043 172.469 588.277 171.443ZM618.775 127.674C618.541 130.047 618.336 132.361 618.16 134.617C617.984 136.844 617.823 139.07 617.677 141.297C618.79 141.238 619.889 141.194 620.973 141.165C622.086 141.106 623.214 141.019 624.356 140.901L624.049 149.822C622.936 149.764 621.793 149.734 620.621 149.734C619.479 149.734 618.351 149.734 617.237 149.734C617.003 153.953 616.827 158.084 616.71 162.127C616.622 166.141 616.578 170.198 616.578 174.3C616.578 176.409 616.593 178.533 616.622 180.672C616.681 182.781 616.739 184.92 616.798 187.088L607.13 187.264C607.335 180.965 607.511 174.739 607.657 168.587C607.804 162.405 607.877 156.18 607.877 149.91C606.764 149.969 605.636 150.027 604.493 150.086C603.351 150.115 602.223 150.174 601.109 150.262L601.461 140.638C602.486 140.784 603.541 140.901 604.625 140.989C605.709 141.077 606.764 141.15 607.789 141.209C607.789 138.924 607.76 136.683 607.701 134.485C607.672 132.288 607.613 130.047 607.525 127.762L618.775 127.674ZM651.69 185.813C648.966 186.751 646.476 187.366 644.22 187.659C641.993 187.952 640.162 188.099 638.727 188.099C636.939 188.099 635.372 187.747 634.024 187.044C632.677 186.341 631.505 185.403 630.509 184.231C629.542 183.06 628.736 181.712 628.092 180.188C627.447 178.636 626.935 177.01 626.554 175.311C626.173 173.611 625.895 171.897 625.719 170.169C625.572 168.411 625.499 166.756 625.499 165.203C625.499 161.336 625.807 157.776 626.422 154.524C627.037 151.243 627.931 148.416 629.103 146.043C630.274 143.67 631.725 141.824 633.453 140.506C635.182 139.158 637.145 138.484 639.342 138.484C641.158 138.484 642.813 138.938 644.308 139.847C645.802 140.755 647.076 142.146 648.131 144.021C649.186 145.896 649.991 148.284 650.548 151.185C651.134 154.056 651.427 157.469 651.427 161.424C651.427 162.537 651.397 163.665 651.339 164.808C651.31 165.95 651.236 167.137 651.119 168.367L635.562 170.433C635.68 171.517 635.855 172.542 636.09 173.509C636.354 174.476 636.69 175.34 637.101 176.102C637.54 176.834 638.053 177.42 638.639 177.859C639.225 178.299 639.942 178.519 640.792 178.519C642.374 178.519 643.956 178.431 645.538 178.255C647.12 178.05 648.775 177.815 650.504 177.552L651.69 185.813ZM635.299 162.962L642.594 161.6V159.93C642.594 157.439 642.403 155.521 642.022 154.173C641.642 152.796 641.231 151.785 640.792 151.141C640.265 150.379 639.664 149.939 638.99 149.822C638.141 149.91 637.467 150.306 636.969 151.009C636.471 151.712 636.09 152.62 635.826 153.733C635.592 154.817 635.445 156.048 635.387 157.425C635.328 158.802 635.299 160.193 635.299 161.6V162.962ZM683.551 175.223C683.434 178.68 683.316 181.741 683.199 184.407C683.082 187.044 682.848 189.358 682.496 191.351C682.145 193.343 681.617 195.013 680.914 196.36C680.211 197.708 679.229 198.792 677.97 199.612C676.739 200.433 675.157 201.019 673.224 201.37C671.319 201.751 668.976 201.941 666.192 201.941C664.815 201.941 663.336 201.883 661.754 201.766C660.172 201.678 658.473 201.473 656.656 201.15L657.008 191.482C659.176 191.629 661.08 191.746 662.721 191.834C664.391 191.922 665.782 191.995 666.896 192.054C668.214 192.142 669.356 192.2 670.323 192.229C671.729 192.229 672.784 191.409 673.487 189.769C674.22 188.128 674.63 185.857 674.718 182.957C674.19 184.129 673.59 185.081 672.916 185.813C672.271 186.546 671.598 187.117 670.895 187.527C670.221 187.967 669.547 188.26 668.873 188.406C668.229 188.553 667.628 188.626 667.071 188.626C665.577 188.626 664.098 188.172 662.633 187.264C661.168 186.355 659.85 184.861 658.678 182.781C657.535 180.672 656.598 177.933 655.865 174.563C655.133 171.165 654.767 166.976 654.767 161.995C654.767 158.128 655.074 154.729 655.689 151.8C656.334 148.87 657.184 146.409 658.238 144.417C659.293 142.425 660.509 140.931 661.886 139.935C663.263 138.909 664.698 138.396 666.192 138.396C666.896 138.396 667.643 138.514 668.434 138.748C669.254 138.982 670.074 139.407 670.895 140.022C671.715 140.608 672.491 141.414 673.224 142.439C673.985 143.436 674.645 144.725 675.201 146.307L675.113 140.901L682.936 141.297L683.551 175.223ZM673.927 166.214C673.927 165.306 673.912 164.236 673.883 163.006C673.883 161.746 673.839 160.457 673.751 159.139C673.692 157.791 673.561 156.473 673.355 155.184C673.15 153.895 672.857 152.737 672.477 151.712C672.125 150.687 671.656 149.866 671.07 149.251C670.484 148.606 669.752 148.284 668.873 148.284C667.76 148.284 666.881 148.753 666.236 149.69C665.621 150.628 665.152 151.829 664.83 153.294C664.537 154.759 664.361 156.37 664.303 158.128C664.244 159.886 664.215 161.585 664.215 163.226C664.215 164.368 664.229 165.569 664.259 166.829C664.317 168.089 664.405 169.349 664.522 170.608C664.64 171.839 664.815 173.011 665.05 174.124C665.284 175.237 665.577 176.233 665.929 177.112C666.28 177.962 666.705 178.636 667.203 179.134C667.73 179.632 668.346 179.881 669.049 179.881C669.928 179.881 670.675 179.529 671.29 178.826C671.905 178.094 672.403 177.112 672.784 175.882C673.194 174.651 673.487 173.216 673.663 171.575C673.839 169.905 673.927 168.118 673.927 166.214ZM714.62 161.819C714.62 165.394 714.459 168.528 714.137 171.224C713.814 173.919 713.346 176.263 712.73 178.255C712.145 180.218 711.427 181.858 710.577 183.177C709.757 184.466 708.834 185.506 707.809 186.297C706.812 187.088 705.729 187.645 704.557 187.967C703.385 188.289 702.184 188.45 700.953 188.45C699.723 188.45 698.536 188.318 697.394 188.055C696.28 187.791 695.24 187.308 694.273 186.604C693.307 185.901 692.413 184.949 691.593 183.748C690.802 182.547 690.128 181.009 689.571 179.134C689.015 177.259 688.575 175.018 688.253 172.41C687.96 169.803 687.813 166.741 687.813 163.226C687.813 157.952 688.194 153.631 688.956 150.262C689.747 146.893 690.772 144.241 692.032 142.308C693.292 140.345 694.728 138.997 696.339 138.265C697.95 137.503 699.605 137.122 701.305 137.122C702.389 137.122 703.473 137.239 704.557 137.474C705.67 137.679 706.71 138.104 707.677 138.748C708.673 139.393 709.596 140.286 710.445 141.429C711.295 142.571 712.027 144.065 712.643 145.911C713.258 147.728 713.741 149.939 714.093 152.547C714.444 155.154 714.62 158.245 714.62 161.819ZM705.172 162.171C705.172 159.358 705.069 157.059 704.864 155.271C704.659 153.455 704.381 152.02 704.029 150.965C703.678 149.91 703.253 149.192 702.755 148.812C702.257 148.401 701.715 148.196 701.129 148.196C700.455 148.196 699.869 148.489 699.371 149.075C698.873 149.632 698.448 150.54 698.097 151.8C697.774 153.06 697.525 154.686 697.35 156.678C697.174 158.641 697.086 161.043 697.086 163.885C697.086 166.756 697.188 169.144 697.394 171.048C697.628 172.923 697.936 174.432 698.316 175.574C698.727 176.688 699.195 177.479 699.723 177.947C700.279 178.416 700.865 178.65 701.48 178.65C702.77 178.65 703.707 177.317 704.293 174.651C704.879 171.985 705.172 167.825 705.172 162.171ZM745.118 159.93C744.181 160.076 743.199 160.252 742.174 160.457C741.295 160.633 740.299 160.867 739.186 161.16C738.072 161.453 736.959 161.79 735.846 162.171C736.139 160.706 736.329 159.432 736.417 158.348C736.534 157.234 736.593 156.224 736.593 155.315C736.593 153.733 736.446 152.503 736.153 151.624C735.89 150.716 735.582 150.042 735.23 149.603C734.879 149.163 734.527 148.899 734.176 148.812C733.854 148.724 733.634 148.68 733.517 148.68C732.579 148.68 731.817 149.075 731.231 149.866C730.646 150.628 730.191 151.653 729.869 152.942C729.547 154.202 729.327 155.652 729.21 157.293C729.093 158.934 729.034 160.618 729.034 162.347C729.034 163.577 729.049 164.808 729.078 166.038C729.107 167.269 729.151 168.499 729.21 169.729L729.825 187L719.674 187.703C719.674 180.643 719.601 174.285 719.454 168.631C719.337 162.947 719.205 158.099 719.059 154.085C718.883 149.397 718.692 145.223 718.487 141.561L727.145 140.989L727.584 145.955C728.346 144.08 729.239 142.601 730.265 141.517C731.319 140.403 732.359 139.583 733.385 139.056C734.439 138.499 735.392 138.147 736.241 138.001C737.12 137.854 737.779 137.781 738.219 137.781C739.713 137.781 740.929 138.265 741.866 139.231C742.804 140.169 743.536 141.385 744.063 142.879C744.591 144.373 744.942 146.014 745.118 147.801C745.323 149.588 745.426 151.316 745.426 152.986C745.426 154.305 745.382 155.564 745.294 156.766C745.235 157.938 745.177 158.992 745.118 159.93ZM762.081 128.597C762.081 129.505 761.935 130.354 761.642 131.146C761.349 131.907 760.909 132.581 760.323 133.167C759.737 133.724 758.99 134.163 758.082 134.485C757.203 134.808 756.163 134.969 754.962 134.969C753.644 134.969 752.53 134.808 751.622 134.485C750.743 134.163 750.011 133.724 749.425 133.167C748.868 132.581 748.458 131.907 748.194 131.146C747.96 130.354 747.843 129.505 747.843 128.597C747.843 127.718 747.975 126.897 748.238 126.136C748.502 125.345 748.912 124.656 749.469 124.07C750.055 123.484 750.802 123.03 751.71 122.708C752.618 122.356 753.702 122.181 754.962 122.181C756.222 122.181 757.291 122.356 758.17 122.708C759.078 123.03 759.811 123.484 760.367 124.07C760.953 124.656 761.378 125.345 761.642 126.136C761.935 126.897 762.081 127.718 762.081 128.597ZM759.444 141.385C759.269 142.996 759.122 144.725 759.005 146.57C758.888 148.416 758.785 150.335 758.697 152.327C758.609 154.29 758.551 156.297 758.521 158.348C758.492 160.369 758.478 162.361 758.478 164.324C758.478 166.609 758.492 168.821 758.521 170.96C758.58 173.069 758.639 175.018 758.697 176.805C758.785 178.592 758.873 180.174 758.961 181.551C759.078 182.928 759.21 183.997 759.356 184.759C758.185 184.759 756.969 184.788 755.709 184.847C754.625 184.905 753.409 184.979 752.062 185.066C750.714 185.154 749.366 185.286 748.019 185.462C748.517 180.188 748.854 175.369 749.029 171.004C749.205 166.609 749.293 162.669 749.293 159.183C749.293 156.194 749.234 153.587 749.117 151.36C749.029 149.104 748.927 147.2 748.81 145.647C748.692 143.831 748.546 142.278 748.37 140.989C750.011 141.194 751.505 141.326 752.853 141.385C754.229 141.443 755.416 141.473 756.412 141.473C756.881 141.473 757.306 141.473 757.687 141.473C758.067 141.473 758.39 141.458 758.653 141.429C758.976 141.429 759.239 141.414 759.444 141.385ZM790.382 159.007C790.382 163.636 790.353 168.265 790.294 172.894C790.265 177.522 790.177 182.342 790.03 187.352L782.384 186.912V180.979C781.505 182.562 780.509 183.777 779.396 184.627C778.282 185.447 777.228 186.062 776.231 186.473C775.06 186.941 773.902 187.205 772.76 187.264C771.354 187.264 770.035 186.956 768.805 186.341C767.574 185.696 766.505 184.847 765.597 183.792C764.688 182.737 763.971 181.536 763.443 180.188C762.945 178.812 762.696 177.391 762.696 175.926C762.696 174.256 763.048 172.615 763.751 171.004C764.483 169.363 765.714 167.884 767.442 166.565C769.757 164.778 771.764 163.284 773.463 162.083C775.162 160.882 776.568 159.798 777.682 158.831C778.824 157.835 779.659 156.897 780.187 156.019C780.743 155.11 781.021 154.07 781.021 152.898C781.021 150.965 780.699 149.529 780.055 148.592C779.41 147.625 778.561 147.142 777.506 147.142C776.861 147.142 776.305 147.317 775.836 147.669C775.396 147.991 775.03 148.431 774.737 148.987C774.474 149.515 774.269 150.115 774.122 150.789C774.005 151.434 773.946 152.078 773.946 152.723C773.946 153.162 773.961 153.646 773.99 154.173C774.049 154.7 774.151 155.257 774.298 155.843L764.19 156.019C764.132 155.521 764.088 155.052 764.059 154.612C764.029 154.144 764.015 153.689 764.015 153.25C764.015 151.434 764.322 149.646 764.938 147.889C765.553 146.102 766.446 144.52 767.618 143.143C768.819 141.736 770.27 140.608 771.969 139.759C773.668 138.909 775.616 138.484 777.813 138.484C780.655 138.484 782.896 139.085 784.537 140.286C786.207 141.458 787.467 143.011 788.316 144.944C789.195 146.878 789.752 149.075 789.986 151.536C790.25 153.968 790.382 156.458 790.382 159.007ZM780.494 171.443C780.641 170.711 780.772 169.876 780.89 168.938C781.007 168.147 781.109 167.195 781.197 166.082C781.285 164.939 781.358 163.665 781.417 162.259C780.948 162.903 780.494 163.475 780.055 163.973C779.615 164.471 779.205 164.91 778.824 165.291C778.385 165.73 777.975 166.126 777.594 166.478C776.92 167.034 776.202 167.664 775.44 168.367C774.679 169.041 773.976 169.759 773.331 170.521C772.716 171.282 772.188 172.073 771.749 172.894C771.339 173.685 771.134 174.461 771.134 175.223C771.134 176.043 771.412 176.805 771.969 177.508C772.525 178.182 773.214 178.519 774.034 178.519C774.649 178.519 775.279 178.343 775.924 177.991C776.598 177.64 777.228 177.142 777.813 176.497C778.429 175.853 778.971 175.105 779.439 174.256C779.908 173.406 780.26 172.469 780.494 171.443Z" fill="#015A9B"/>
</svg>
