<svg width="728" height="988" viewBox="0 0 728 988" fill="none" xmlns="http://www.w3.org/2000/svg">
<path d="M323.552 385.223C266.824 355.911 212.126 363.921 181.485 387.634C175.771 392.056 179.097 402.908 187.852 400.898C239.206 376.998 267.714 376.159 315.195 399.29C357.539 428.786 370.686 452.133 377.275 504.996C379.662 514.642 393.681 511.848 393.193 504.996C389.213 449.129 372.932 416.696 323.552 385.223Z" fill="#939191" stroke="#939191"/>
<path d="M649.849 849.995L577.422 922.743C601.299 953.825 650.645 1019.61 701.582 970.17C745.964 927.095 683.807 873.038 649.849 849.995Z" fill="#939191"/>
<path d="M464.027 522.427C464.027 645.626 367.09 743.854 249.513 743.854C131.936 743.854 35 645.626 35 522.427C35 399.228 131.936 301 249.513 301C367.09 301 464.027 399.228 464.027 522.427Z" stroke="#939191" stroke-width="70"/>
<path d="M636.319 834.721L466.793 679.981L455.65 694.048L440.13 712.135L422.223 727.81L409.886 736.652L564.29 910.283L636.319 834.721Z" fill="#939191"/>
<path d="M266.476 20.6309C266.095 26.5195 265.802 32.3643 265.597 38.165C265.392 43.9365 265.289 49.7373 265.289 55.5674C265.289 60.1084 265.348 64.5908 265.465 69.0146C265.611 73.4385 265.846 77.8916 266.168 82.374L257.291 82.1104C256.119 78.3018 254.962 74.5225 253.819 70.7725C252.706 66.9932 251.593 63.2432 250.479 59.5225C249.366 55.8018 248.224 52.0957 247.052 48.4043C245.909 44.7129 244.723 41.0361 243.492 37.374C243.58 45.0205 243.712 52.6523 243.888 60.2695C244.093 67.8574 244.444 75.4307 244.942 82.9893L234.791 82.9014C235.143 73.5557 235.318 64.166 235.318 54.7324C235.318 48.9316 235.26 43.1895 235.143 37.5059C235.025 31.8223 234.85 26.1094 234.615 20.3672L246.92 20.6309C248.414 27.0762 250.011 33.624 251.71 40.2744C253.409 46.9248 255.211 53.4873 257.115 59.9619C256.91 53.3408 256.603 46.7197 256.192 40.0986C255.812 33.4482 255.387 26.9297 254.918 20.543L266.476 20.6309ZM297.765 56.0068C297.765 60.6357 297.735 65.2646 297.677 69.8936C297.647 74.5225 297.56 79.3418 297.413 84.3516L289.767 83.9121V77.9795C288.888 79.5615 287.892 80.7773 286.778 81.627C285.665 82.4473 284.61 83.0625 283.614 83.4727C282.442 83.9414 281.285 84.2051 280.143 84.2637C278.736 84.2637 277.418 83.9561 276.188 83.3408C274.957 82.6963 273.888 81.8467 272.979 80.792C272.071 79.7373 271.354 78.5361 270.826 77.1885C270.328 75.8115 270.079 74.3906 270.079 72.9258C270.079 71.2559 270.431 69.6152 271.134 68.0039C271.866 66.3633 273.097 64.8838 274.825 63.5654C277.14 61.7783 279.146 60.2842 280.846 59.083C282.545 57.8818 283.951 56.7979 285.064 55.8311C286.207 54.835 287.042 53.8975 287.569 53.0186C288.126 52.1104 288.404 51.0703 288.404 49.8984C288.404 47.9648 288.082 46.5293 287.438 45.5918C286.793 44.625 285.943 44.1416 284.889 44.1416C284.244 44.1416 283.688 44.3174 283.219 44.6689C282.779 44.9912 282.413 45.4307 282.12 45.9873C281.856 46.5146 281.651 47.1152 281.505 47.7891C281.388 48.4336 281.329 49.0781 281.329 49.7227C281.329 50.1621 281.344 50.6455 281.373 51.1729C281.432 51.7002 281.534 52.2568 281.681 52.8428L271.573 53.0186C271.515 52.5205 271.471 52.0518 271.441 51.6123C271.412 51.1436 271.397 50.6895 271.397 50.25C271.397 48.4336 271.705 46.6465 272.32 44.8887C272.936 43.1016 273.829 41.5195 275.001 40.1426C276.202 38.7363 277.652 37.6084 279.352 36.7588C281.051 35.9092 282.999 35.4844 285.196 35.4844C288.038 35.4844 290.279 36.085 291.92 37.2861C293.59 38.458 294.85 40.0107 295.699 41.9443C296.578 43.8779 297.135 46.0752 297.369 48.5361C297.633 50.9678 297.765 53.458 297.765 56.0068ZM287.877 68.4434C288.023 67.7109 288.155 66.876 288.272 65.9385C288.39 65.1475 288.492 64.1953 288.58 63.082C288.668 61.9395 288.741 60.665 288.8 59.2588C288.331 59.9033 287.877 60.4746 287.438 60.9727C286.998 61.4707 286.588 61.9102 286.207 62.291C285.768 62.7305 285.357 63.126 284.977 63.4775C284.303 64.0342 283.585 64.6641 282.823 65.3672C282.062 66.041 281.358 66.7588 280.714 67.5205C280.099 68.2822 279.571 69.0732 279.132 69.8936C278.722 70.6846 278.517 71.4609 278.517 72.2227C278.517 73.043 278.795 73.8047 279.352 74.5078C279.908 75.1816 280.597 75.5186 281.417 75.5186C282.032 75.5186 282.662 75.3428 283.307 74.9912C283.98 74.6396 284.61 74.1416 285.196 73.4971C285.812 72.8525 286.354 72.1055 286.822 71.2559C287.291 70.4062 287.643 69.4688 287.877 68.4434ZM330.328 21.3779L329.229 84.5273H320.792V80.0449C319.942 81.3047 319.122 82.2861 318.331 82.9893C317.54 83.6631 316.837 84.1611 316.222 84.4834C315.489 84.8643 314.815 85.0986 314.2 85.1865C312.706 85.1865 311.227 84.7471 309.762 83.8682C308.297 82.96 306.979 81.4658 305.807 79.3857C304.664 77.3057 303.727 74.5811 302.994 71.2119C302.262 67.8135 301.896 63.6094 301.896 58.5996C301.896 54.7617 302.203 51.3926 302.818 48.4922C303.463 45.5625 304.312 43.1162 305.367 41.1533C306.422 39.1904 307.638 37.7109 309.015 36.7148C310.392 35.7188 311.827 35.2207 313.321 35.2207C314.112 35.2793 314.903 35.4844 315.694 35.8359C316.368 36.1582 317.115 36.6416 317.936 37.2861C318.756 37.9307 319.532 38.8389 320.265 40.0107L319.693 21.8174L330.328 21.3779ZM321.056 62.7744C320.997 60.7822 320.924 58.7461 320.836 56.666C320.777 54.5859 320.587 52.6963 320.265 50.9971C319.942 49.2686 319.444 47.8623 318.771 46.7783C318.126 45.665 317.203 45.1084 316.002 45.1084C314.889 45.1084 314.01 45.5625 313.365 46.4707C312.75 47.3789 312.281 48.5508 311.959 49.9863C311.666 51.4219 311.49 53.0039 311.432 54.7324C311.373 56.4609 311.344 58.1455 311.344 59.7861C311.344 60.9287 311.358 62.1299 311.388 63.3896C311.446 64.6494 311.534 65.9092 311.651 67.1689C311.769 68.3994 311.944 69.5713 312.179 70.6846C312.413 71.7979 312.706 72.7939 313.058 73.6729C313.409 74.5225 313.834 75.1963 314.332 75.6943C314.859 76.1924 315.475 76.4414 316.178 76.4414C317.057 76.4414 317.804 76.0898 318.419 75.3867C319.034 74.6543 319.532 73.6729 319.913 72.4424C320.323 71.2119 320.616 69.7764 320.792 68.1357C320.968 66.4658 321.056 64.6787 321.056 62.7744ZM361.397 56.0068C361.397 60.6357 361.368 65.2646 361.31 69.8936C361.28 74.5225 361.192 79.3418 361.046 84.3516L353.399 83.9121V77.9795C352.521 79.5615 351.524 80.7773 350.411 81.627C349.298 82.4473 348.243 83.0625 347.247 83.4727C346.075 83.9414 344.918 84.2051 343.775 84.2637C342.369 84.2637 341.051 83.9561 339.82 83.3408C338.59 82.6963 337.521 81.8467 336.612 80.792C335.704 79.7373 334.986 78.5361 334.459 77.1885C333.961 75.8115 333.712 74.3906 333.712 72.9258C333.712 71.2559 334.063 69.6152 334.767 68.0039C335.499 66.3633 336.729 64.8838 338.458 63.5654C340.772 61.7783 342.779 60.2842 344.479 59.083C346.178 57.8818 347.584 56.7979 348.697 55.8311C349.84 54.835 350.675 53.8975 351.202 53.0186C351.759 52.1104 352.037 51.0703 352.037 49.8984C352.037 47.9648 351.715 46.5293 351.07 45.5918C350.426 44.625 349.576 44.1416 348.521 44.1416C347.877 44.1416 347.32 44.3174 346.852 44.6689C346.412 44.9912 346.046 45.4307 345.753 45.9873C345.489 46.5146 345.284 47.1152 345.138 47.7891C345.021 48.4336 344.962 49.0781 344.962 49.7227C344.962 50.1621 344.977 50.6455 345.006 51.1729C345.064 51.7002 345.167 52.2568 345.313 52.8428L335.206 53.0186C335.147 52.5205 335.104 52.0518 335.074 51.6123C335.045 51.1436 335.03 50.6895 335.03 50.25C335.03 48.4336 335.338 46.6465 335.953 44.8887C336.568 43.1016 337.462 41.5195 338.634 40.1426C339.835 38.7363 341.285 37.6084 342.984 36.7588C344.684 35.9092 346.632 35.4844 348.829 35.4844C351.671 35.4844 353.912 36.085 355.553 37.2861C357.223 38.458 358.482 40.0107 359.332 41.9443C360.211 43.8779 360.768 46.0752 361.002 48.5361C361.266 50.9678 361.397 53.458 361.397 56.0068ZM351.51 68.4434C351.656 67.7109 351.788 66.876 351.905 65.9385C352.022 65.1475 352.125 64.1953 352.213 63.082C352.301 61.9395 352.374 60.665 352.433 59.2588C351.964 59.9033 351.51 60.4746 351.07 60.9727C350.631 61.4707 350.221 61.9102 349.84 62.291C349.4 62.7305 348.99 63.126 348.609 63.4775C347.936 64.0342 347.218 64.6641 346.456 65.3672C345.694 66.041 344.991 66.7588 344.347 67.5205C343.731 68.2822 343.204 69.0732 342.765 69.8936C342.354 70.6846 342.149 71.4609 342.149 72.2227C342.149 73.043 342.428 73.8047 342.984 74.5078C343.541 75.1816 344.229 75.5186 345.05 75.5186C345.665 75.5186 346.295 75.3428 346.939 74.9912C347.613 74.6396 348.243 74.1416 348.829 73.4971C349.444 72.8525 349.986 72.1055 350.455 71.2559C350.924 70.4062 351.275 69.4688 351.51 68.4434ZM399.103 84.3516C398.956 82.3301 398.81 80.2939 398.663 78.2432C398.546 76.1924 398.399 74.127 398.224 72.0469C396.935 71.959 395.689 71.8711 394.488 71.7832C393.287 71.6953 392.071 71.6514 390.841 71.6514H390.27C390.123 73.7607 389.991 75.8408 389.874 77.8916C389.757 79.9424 389.654 81.9785 389.566 84L378.58 83.8242C380.396 73.3652 382.037 62.9355 383.502 52.5352C384.967 42.1348 386.212 31.6465 387.237 21.0703L400.465 21.29C401.578 31.749 402.911 42.1494 404.464 52.4912C406.046 62.8037 407.892 73.1895 410.001 83.6484L399.103 84.3516ZM393.961 32.1445C393.375 37.5352 392.818 42.9111 392.291 48.2725C391.764 53.6338 391.28 59.0391 390.841 64.4883C391.456 64.5469 392.086 64.5762 392.73 64.5762C393.375 64.5762 394.034 64.5762 394.708 64.5762H397.564C397.066 59.127 396.51 53.7217 395.895 48.3604C395.279 42.999 394.635 37.5938 393.961 32.1445ZM430.04 98.9414L430.392 80.2207C429.601 81.3926 428.751 82.3008 427.843 82.9453C426.935 83.5605 426.1 84.0146 425.338 84.3076C424.43 84.6299 423.536 84.8203 422.657 84.8789C421.163 84.8789 419.728 84.4248 418.351 83.5166C416.974 82.5791 415.758 81.1729 414.703 79.2979C413.648 77.3936 412.799 75.0205 412.154 72.1787C411.539 69.3369 411.231 65.9824 411.231 62.1152C411.231 57.252 411.583 53.1357 412.286 49.7666C412.989 46.3682 413.912 43.6289 415.055 41.5488C416.197 39.4395 417.486 37.916 418.922 36.9785C420.357 36.041 421.808 35.5723 423.272 35.5723C424.269 35.5723 425.162 35.7334 425.953 36.0557C426.744 36.3486 427.447 36.7734 428.062 37.3301C428.678 37.8867 429.22 38.5312 429.688 39.2637C430.157 39.9961 430.567 40.8018 430.919 41.6807V37.374L438.653 37.4619L439.752 99.3809L430.04 98.9414ZM430.392 60.1377C430.392 59.7275 430.392 59.0537 430.392 58.1162C430.392 57.1494 430.348 56.0801 430.26 54.9082C430.172 53.7363 430.04 52.5352 429.864 51.3047C429.688 50.0449 429.41 48.9023 429.029 47.877C428.678 46.8223 428.224 45.9727 427.667 45.3281C427.11 44.6543 426.422 44.3174 425.602 44.3174C424.693 44.3174 423.917 44.7568 423.272 45.6357C422.657 46.5146 422.159 47.6572 421.778 49.0635C421.397 50.4697 421.119 52.0371 420.943 53.7656C420.768 55.4941 420.68 57.208 420.68 58.9072C420.68 60.5479 420.694 62.3057 420.724 64.1807C420.753 66.0557 420.899 67.7988 421.163 69.4102C421.427 71.0215 421.866 72.3545 422.481 73.4092C423.126 74.4639 424.049 74.9912 425.25 74.9912C426.07 74.9912 426.759 74.7715 427.315 74.332C427.872 73.8633 428.326 73.248 428.678 72.4863C429.059 71.6953 429.352 70.8018 429.557 69.8057C429.791 68.7803 429.952 67.7256 430.04 66.6416C430.157 65.5283 430.23 64.415 430.26 63.3018C430.318 62.1885 430.362 61.1338 430.392 60.1377ZM472.359 40.626C472.125 45.3428 471.964 50.0156 471.876 54.6445C471.788 59.2441 471.744 63.873 471.744 68.5312C471.744 71.2852 471.744 74.0098 471.744 76.7051C471.773 79.4004 471.832 82.125 471.92 84.8789L463.175 85.0986V79.6055C462.296 81.041 461.314 82.1396 460.23 82.9014C459.146 83.6631 458.106 84.2051 457.11 84.5273C456.144 84.8789 455.309 85.0693 454.605 85.0986C453.902 85.1572 453.492 85.1865 453.375 85.1865C451.529 84.8057 449.991 84 448.761 82.7695C447.56 81.5098 446.593 79.957 445.86 78.1113C445.157 76.2363 444.659 74.127 444.366 71.7832C444.073 69.4395 443.927 66.9785 443.927 64.4004C443.927 62.1738 444.015 59.9033 444.19 57.5889C444.366 55.2744 444.586 53.0039 444.85 50.7773C445.113 48.5215 445.406 46.3535 445.729 44.2734C446.051 42.1641 446.373 40.2012 446.695 38.3848L456.275 38.5605C456.012 40.2891 455.733 42.1641 455.44 44.1855C455.177 46.207 454.928 48.2725 454.693 50.3818C454.488 52.4912 454.312 54.6152 454.166 56.7539C454.049 58.8633 453.99 60.8701 453.99 62.7744C453.99 64.5322 454.063 66.1729 454.21 67.6963C454.356 69.2197 454.591 70.5527 454.913 71.6953C455.235 72.8086 455.646 73.6875 456.144 74.332C456.671 74.9473 457.315 75.2549 458.077 75.2549C459.073 75.2549 459.894 74.6543 460.538 73.4531C461.183 72.252 461.681 70.6846 462.032 68.751C462.413 66.7881 462.662 64.5908 462.779 62.1592C462.926 59.7275 462.999 57.2812 462.999 54.8203C462.999 52.9746 462.97 51.2168 462.911 49.5469C462.853 47.877 462.794 46.3828 462.735 45.0645C462.647 43.541 462.56 42.1201 462.472 40.8018L472.359 40.626ZM490.86 25.5967C490.86 26.5049 490.714 27.3545 490.421 28.1455C490.128 28.9072 489.688 29.5811 489.103 30.167C488.517 30.7236 487.77 31.1631 486.861 31.4854C485.982 31.8076 484.942 31.9688 483.741 31.9688C482.423 31.9688 481.31 31.8076 480.401 31.4854C479.522 31.1631 478.79 30.7236 478.204 30.167C477.647 29.5811 477.237 28.9072 476.974 28.1455C476.739 27.3545 476.622 26.5049 476.622 25.5967C476.622 24.7178 476.754 23.8975 477.018 23.1357C477.281 22.3447 477.691 21.6562 478.248 21.0703C478.834 20.4844 479.581 20.0303 480.489 19.708C481.397 19.3564 482.481 19.1807 483.741 19.1807C485.001 19.1807 486.07 19.3564 486.949 19.708C487.857 20.0303 488.59 20.4844 489.146 21.0703C489.732 21.6562 490.157 22.3447 490.421 23.1357C490.714 23.8975 490.86 24.7178 490.86 25.5967ZM488.224 38.3848C488.048 39.9961 487.901 41.7246 487.784 43.5703C487.667 45.416 487.564 47.335 487.477 49.3271C487.389 51.29 487.33 53.2969 487.301 55.3477C487.271 57.3691 487.257 59.3613 487.257 61.3242C487.257 63.6094 487.271 65.8213 487.301 67.96C487.359 70.0693 487.418 72.0176 487.477 73.8047C487.564 75.5918 487.652 77.1738 487.74 78.5508C487.857 79.9277 487.989 80.9971 488.136 81.7588C486.964 81.7588 485.748 81.7881 484.488 81.8467C483.404 81.9053 482.188 81.9785 480.841 82.0664C479.493 82.1543 478.146 82.2861 476.798 82.4619C477.296 77.1885 477.633 72.3691 477.809 68.0039C477.984 63.6094 478.072 59.6689 478.072 56.1826C478.072 53.1943 478.014 50.5869 477.896 48.3604C477.809 46.1045 477.706 44.2002 477.589 42.6475C477.472 40.8311 477.325 39.2783 477.149 37.9893C478.79 38.1943 480.284 38.3262 481.632 38.3848C483.009 38.4434 484.195 38.4727 485.191 38.4727C485.66 38.4727 486.085 38.4727 486.466 38.4727C486.847 38.4727 487.169 38.458 487.433 38.4287C487.755 38.4287 488.019 38.4141 488.224 38.3848ZM503.956 20.2793C503.136 28.3945 502.491 36.583 502.022 44.8447C501.554 53.1064 501.275 61.2363 501.188 69.2344L495.343 69.4102C495.138 61.3535 494.859 53.1797 494.508 44.8887C494.186 36.5977 493.805 28.4238 493.365 20.3672L503.956 20.2793ZM503.165 80.3086C503.165 81.0117 503.019 81.6709 502.726 82.2861C502.462 82.9014 502.096 83.4434 501.627 83.9121C501.188 84.3516 500.646 84.7031 500.001 84.9668C499.386 85.2305 498.727 85.3623 498.023 85.3623C497.32 85.3623 496.661 85.2305 496.046 84.9668C495.46 84.7031 494.933 84.3516 494.464 83.9121C493.995 83.4434 493.629 82.9014 493.365 82.2861C493.102 81.6709 492.97 81.0117 492.97 80.3086C492.97 79.6055 493.102 78.9609 493.365 78.375C493.629 77.7598 493.995 77.2178 494.464 76.749C494.933 76.2803 495.46 75.9141 496.046 75.6504C496.661 75.3867 497.32 75.2549 498.023 75.2549C498.727 75.2549 499.386 75.3867 500.001 75.6504C500.646 75.9141 501.188 76.2803 501.627 76.749C502.096 77.2178 502.462 77.7598 502.726 78.375C503.019 78.9609 503.165 79.6055 503.165 80.3086ZM35.3232 133.079C34.3857 133.021 33.3018 132.977 32.0713 132.947C30.8701 132.918 29.5811 132.903 28.2041 132.903C27.999 135.628 27.8232 138.455 27.6768 141.385C27.5596 144.285 27.457 147.244 27.3691 150.262C27.2812 153.25 27.2227 156.268 27.1934 159.314C27.1641 162.332 27.1494 165.32 27.1494 168.279C27.1494 171.648 27.1641 174.915 27.1934 178.079C27.252 181.214 27.3545 184.246 27.501 187.176H18.1406C18.4043 182.195 18.6094 176.893 18.7559 171.268C18.9023 165.643 18.9756 159.974 18.9756 154.261C18.9756 150.54 18.9316 146.907 18.8438 143.362C18.7559 139.817 18.668 136.36 18.5801 132.991C17.1738 132.991 15.8408 133.006 14.5811 133.035C13.3213 133.064 12.1934 133.108 11.1973 133.167L11.2852 123.982C12.3398 124.07 13.5264 124.144 14.8447 124.202C16.1631 124.231 17.54 124.261 18.9756 124.29C20.4404 124.319 21.9346 124.349 23.458 124.378C24.9814 124.378 26.4756 124.378 27.9404 124.378C29.4053 124.378 30.7822 124.378 32.0713 124.378C33.3896 124.378 34.5615 124.349 35.5869 124.29L35.3232 133.079ZM62.5693 185.813C59.8447 186.751 57.3545 187.366 55.0986 187.659C52.8721 187.952 51.041 188.099 49.6055 188.099C47.8184 188.099 46.251 187.747 44.9033 187.044C43.5557 186.341 42.3838 185.403 41.3877 184.231C40.4209 183.06 39.6152 181.712 38.9707 180.188C38.3262 178.636 37.8135 177.01 37.4326 175.311C37.0518 173.611 36.7734 171.897 36.5977 170.169C36.4512 168.411 36.3779 166.756 36.3779 165.203C36.3779 161.336 36.6855 157.776 37.3008 154.524C37.916 151.243 38.8096 148.416 39.9814 146.043C41.1533 143.67 42.6035 141.824 44.332 140.506C46.0605 139.158 48.0234 138.484 50.2207 138.484C52.0371 138.484 53.6924 138.938 55.1865 139.847C56.6807 140.755 57.9551 142.146 59.0098 144.021C60.0645 145.896 60.8701 148.284 61.4268 151.185C62.0127 154.056 62.3057 157.469 62.3057 161.424C62.3057 162.537 62.2764 163.665 62.2178 164.808C62.1885 165.95 62.1152 167.137 61.998 168.367L46.4414 170.433C46.5586 171.517 46.7344 172.542 46.9688 173.509C47.2324 174.476 47.5693 175.34 47.9795 176.102C48.4189 176.834 48.9316 177.42 49.5176 177.859C50.1035 178.299 50.8213 178.519 51.6709 178.519C53.2529 178.519 54.835 178.431 56.417 178.255C57.999 178.05 59.6543 177.815 61.3828 177.552L62.5693 185.813ZM46.1777 162.962L53.4727 161.6V159.93C53.4727 157.439 53.2822 155.521 52.9014 154.173C52.5205 152.796 52.1104 151.785 51.6709 151.141C51.1436 150.379 50.543 149.939 49.8691 149.822C49.0195 149.91 48.3457 150.306 47.8477 151.009C47.3496 151.712 46.9688 152.62 46.7051 153.733C46.4707 154.817 46.3242 156.048 46.2656 157.425C46.207 158.802 46.1777 160.193 46.1777 161.6V162.962ZM84.542 186.736C85.1865 182.02 85.6406 177.244 85.9043 172.41C86.1973 167.576 86.3438 162.508 86.3438 157.205C86.3438 155.418 86.2266 153.997 85.9922 152.942C85.7578 151.858 85.4502 151.038 85.0693 150.481C84.6885 149.896 84.2783 149.529 83.8389 149.383C83.3994 149.207 82.9746 149.119 82.5645 149.119C81.9785 149.119 81.4219 149.222 80.8945 149.427C80.3965 149.632 79.9277 150.027 79.4883 150.613C79.0488 151.199 78.6387 152.02 78.2578 153.074C77.9062 154.129 77.5986 155.521 77.335 157.249C77.0713 158.978 76.8662 161.087 76.7197 163.577C76.6025 166.038 76.5439 168.982 76.5439 172.41C76.5439 173.641 76.5439 174.93 76.5439 176.277C76.5439 177.596 76.5439 178.855 76.5439 180.057C76.5732 181.258 76.5879 182.327 76.5879 183.265C76.6172 184.173 76.6611 184.817 76.7197 185.198L66.7881 185.11C66.876 182.444 66.9346 180.071 66.9639 177.991C67.0225 175.882 67.0664 173.948 67.0957 172.19C67.125 170.433 67.1396 168.792 67.1396 167.269C67.1689 165.716 67.1836 164.192 67.1836 162.698C67.1836 161.351 67.1689 159.974 67.1396 158.567C67.1396 157.132 67.125 155.594 67.0957 153.953C67.0957 152.312 67.0664 150.525 67.0078 148.592C66.9785 146.629 66.9346 144.461 66.876 142.088L77.1592 141.824L76.9834 146.307C77.7744 144.812 78.624 143.626 79.5322 142.747C80.4404 141.839 81.334 141.136 82.2129 140.638C83.1211 140.14 84 139.817 84.8496 139.671C85.6992 139.495 86.4609 139.407 87.1348 139.407C88.9512 139.407 90.4453 140.037 91.6172 141.297C92.7891 142.557 93.7119 144.241 94.3857 146.351C95.0889 148.431 95.5723 150.818 95.8359 153.514C96.0996 156.209 96.2314 159.007 96.2314 161.907C96.2314 164.017 96.1729 166.155 96.0557 168.323C95.9678 170.491 95.8506 172.63 95.7041 174.739C95.5869 176.819 95.4404 178.841 95.2646 180.804C95.1182 182.737 94.9863 184.539 94.8691 186.209L84.542 186.736ZM116.578 127.674C116.344 130.047 116.139 132.361 115.963 134.617C115.787 136.844 115.626 139.07 115.479 141.297C116.593 141.238 117.691 141.194 118.775 141.165C119.889 141.106 121.017 141.019 122.159 140.901L121.852 149.822C120.738 149.764 119.596 149.734 118.424 149.734C117.281 149.734 116.153 149.734 115.04 149.734C114.806 153.953 114.63 158.084 114.513 162.127C114.425 166.141 114.381 170.198 114.381 174.3C114.381 176.409 114.396 178.533 114.425 180.672C114.483 182.781 114.542 184.92 114.601 187.088L104.933 187.264C105.138 180.965 105.313 174.739 105.46 168.587C105.606 162.405 105.68 156.18 105.68 149.91C104.566 149.969 103.438 150.027 102.296 150.086C101.153 150.115 100.025 150.174 98.9121 150.262L99.2637 140.638C100.289 140.784 101.344 140.901 102.428 140.989C103.512 141.077 104.566 141.15 105.592 141.209C105.592 138.924 105.562 136.683 105.504 134.485C105.475 132.288 105.416 130.047 105.328 127.762L116.578 127.674ZM149.493 185.813C146.769 186.751 144.278 187.366 142.022 187.659C139.796 187.952 137.965 188.099 136.529 188.099C134.742 188.099 133.175 187.747 131.827 187.044C130.479 186.341 129.308 185.403 128.312 184.231C127.345 183.06 126.539 181.712 125.895 180.188C125.25 178.636 124.737 177.01 124.356 175.311C123.976 173.611 123.697 171.897 123.521 170.169C123.375 168.411 123.302 166.756 123.302 165.203C123.302 161.336 123.609 157.776 124.225 154.524C124.84 151.243 125.733 148.416 126.905 146.043C128.077 143.67 129.527 141.824 131.256 140.506C132.984 139.158 134.947 138.484 137.145 138.484C138.961 138.484 140.616 138.938 142.11 139.847C143.604 140.755 144.879 142.146 145.934 144.021C146.988 145.896 147.794 148.284 148.351 151.185C148.937 154.056 149.229 157.469 149.229 161.424C149.229 162.537 149.2 163.665 149.142 164.808C149.112 165.95 149.039 167.137 148.922 168.367L133.365 170.433C133.482 171.517 133.658 172.542 133.893 173.509C134.156 174.476 134.493 175.34 134.903 176.102C135.343 176.834 135.855 177.42 136.441 177.859C137.027 178.299 137.745 178.519 138.595 178.519C140.177 178.519 141.759 178.431 143.341 178.255C144.923 178.05 146.578 177.815 148.307 177.552L149.493 185.813ZM133.102 162.962L140.396 161.6V159.93C140.396 157.439 140.206 155.521 139.825 154.173C139.444 152.796 139.034 151.785 138.595 151.141C138.067 150.379 137.467 149.939 136.793 149.822C135.943 149.91 135.27 150.306 134.771 151.009C134.273 151.712 133.893 152.62 133.629 153.733C133.395 154.817 133.248 156.048 133.189 157.425C133.131 158.802 133.102 160.193 133.102 161.6V162.962ZM186.144 187.352C185.997 185.33 185.851 183.294 185.704 181.243C185.587 179.192 185.44 177.127 185.265 175.047C183.976 174.959 182.73 174.871 181.529 174.783C180.328 174.695 179.112 174.651 177.882 174.651H177.311C177.164 176.761 177.032 178.841 176.915 180.892C176.798 182.942 176.695 184.979 176.607 187L165.621 186.824C167.438 176.365 169.078 165.936 170.543 155.535C172.008 145.135 173.253 134.646 174.278 124.07L187.506 124.29C188.619 134.749 189.952 145.149 191.505 155.491C193.087 165.804 194.933 176.189 197.042 186.648L186.144 187.352ZM181.002 135.145C180.416 140.535 179.859 145.911 179.332 151.272C178.805 156.634 178.321 162.039 177.882 167.488C178.497 167.547 179.127 167.576 179.771 167.576C180.416 167.576 181.075 167.576 181.749 167.576H184.605C184.107 162.127 183.551 156.722 182.936 151.36C182.32 145.999 181.676 140.594 181.002 135.145ZM226.705 124.378L225.606 187.527H217.169V183.045C216.319 184.305 215.499 185.286 214.708 185.989C213.917 186.663 213.214 187.161 212.599 187.483C211.866 187.864 211.192 188.099 210.577 188.187C209.083 188.187 207.604 187.747 206.139 186.868C204.674 185.96 203.355 184.466 202.184 182.386C201.041 180.306 200.104 177.581 199.371 174.212C198.639 170.813 198.272 166.609 198.272 161.6C198.272 157.762 198.58 154.393 199.195 151.492C199.84 148.562 200.689 146.116 201.744 144.153C202.799 142.19 204.015 140.711 205.392 139.715C206.769 138.719 208.204 138.221 209.698 138.221C210.489 138.279 211.28 138.484 212.071 138.836C212.745 139.158 213.492 139.642 214.312 140.286C215.133 140.931 215.909 141.839 216.642 143.011L216.07 124.817L226.705 124.378ZM217.433 165.774C217.374 163.782 217.301 161.746 217.213 159.666C217.154 157.586 216.964 155.696 216.642 153.997C216.319 152.269 215.821 150.862 215.147 149.778C214.503 148.665 213.58 148.108 212.379 148.108C211.266 148.108 210.387 148.562 209.742 149.471C209.127 150.379 208.658 151.551 208.336 152.986C208.043 154.422 207.867 156.004 207.809 157.732C207.75 159.461 207.721 161.146 207.721 162.786C207.721 163.929 207.735 165.13 207.765 166.39C207.823 167.649 207.911 168.909 208.028 170.169C208.146 171.399 208.321 172.571 208.556 173.685C208.79 174.798 209.083 175.794 209.435 176.673C209.786 177.522 210.211 178.196 210.709 178.694C211.236 179.192 211.852 179.441 212.555 179.441C213.434 179.441 214.181 179.09 214.796 178.387C215.411 177.654 215.909 176.673 216.29 175.442C216.7 174.212 216.993 172.776 217.169 171.136C217.345 169.466 217.433 167.679 217.433 165.774ZM245.206 128.597C245.206 129.505 245.06 130.354 244.767 131.146C244.474 131.907 244.034 132.581 243.448 133.167C242.862 133.724 242.115 134.163 241.207 134.485C240.328 134.808 239.288 134.969 238.087 134.969C236.769 134.969 235.655 134.808 234.747 134.485C233.868 134.163 233.136 133.724 232.55 133.167C231.993 132.581 231.583 131.907 231.319 131.146C231.085 130.354 230.968 129.505 230.968 128.597C230.968 127.718 231.1 126.897 231.363 126.136C231.627 125.345 232.037 124.656 232.594 124.07C233.18 123.484 233.927 123.03 234.835 122.708C235.743 122.356 236.827 122.181 238.087 122.181C239.347 122.181 240.416 122.356 241.295 122.708C242.203 123.03 242.936 123.484 243.492 124.07C244.078 124.656 244.503 125.345 244.767 126.136C245.06 126.897 245.206 127.718 245.206 128.597ZM242.569 141.385C242.394 142.996 242.247 144.725 242.13 146.57C242.013 148.416 241.91 150.335 241.822 152.327C241.734 154.29 241.676 156.297 241.646 158.348C241.617 160.369 241.603 162.361 241.603 164.324C241.603 166.609 241.617 168.821 241.646 170.96C241.705 173.069 241.764 175.018 241.822 176.805C241.91 178.592 241.998 180.174 242.086 181.551C242.203 182.928 242.335 183.997 242.481 184.759C241.31 184.759 240.094 184.788 238.834 184.847C237.75 184.905 236.534 184.979 235.187 185.066C233.839 185.154 232.491 185.286 231.144 185.462C231.642 180.188 231.979 175.369 232.154 171.004C232.33 166.609 232.418 162.669 232.418 159.183C232.418 156.194 232.359 153.587 232.242 151.36C232.154 149.104 232.052 147.2 231.935 145.647C231.817 143.831 231.671 142.278 231.495 140.989C233.136 141.194 234.63 141.326 235.978 141.385C237.354 141.443 238.541 141.473 239.537 141.473C240.006 141.473 240.431 141.473 240.812 141.473C241.192 141.473 241.515 141.458 241.778 141.429C242.101 141.429 242.364 141.414 242.569 141.385ZM267.398 150.921C266.988 150.394 266.49 149.983 265.904 149.69C265.318 149.397 264.732 149.178 264.146 149.031C263.561 148.885 263.019 148.797 262.521 148.768C262.022 148.709 261.671 148.68 261.466 148.68C260.587 148.68 259.796 149.061 259.093 149.822C258.419 150.584 257.833 151.668 257.335 153.074C256.866 154.48 256.5 156.194 256.236 158.216C256.002 160.208 255.885 162.449 255.885 164.939C255.885 167.342 256.046 169.539 256.368 171.531C256.72 173.494 257.32 175.193 258.17 176.629C259.02 178.035 260.162 179.163 261.598 180.013C263.033 180.862 264.85 181.36 267.047 181.507L266.783 189.065C266.285 189.124 265.787 189.168 265.289 189.197C264.82 189.227 264.352 189.241 263.883 189.241C261.363 189.241 259.181 188.919 257.335 188.274C255.519 187.659 253.966 186.78 252.677 185.638C251.388 184.495 250.333 183.147 249.513 181.595C248.722 180.013 248.092 178.299 247.623 176.453C247.154 174.578 246.832 172.601 246.656 170.521C246.51 168.411 246.437 166.258 246.437 164.061C246.437 162.537 246.466 160.853 246.524 159.007C246.612 157.132 246.788 155.257 247.052 153.382C247.345 151.478 247.77 149.632 248.326 147.845C248.912 146.058 249.703 144.476 250.699 143.099C251.695 141.692 252.94 140.579 254.435 139.759C255.958 138.909 257.789 138.484 259.928 138.484C260.865 138.484 261.773 138.558 262.652 138.704C263.531 138.851 264.337 139.041 265.069 139.275C265.802 139.48 266.432 139.715 266.959 139.979C267.486 140.213 267.867 140.433 268.102 140.638L267.398 150.921ZM285.021 128.597C285.021 129.505 284.874 130.354 284.581 131.146C284.288 131.907 283.849 132.581 283.263 133.167C282.677 133.724 281.93 134.163 281.021 134.485C280.143 134.808 279.103 134.969 277.901 134.969C276.583 134.969 275.47 134.808 274.562 134.485C273.683 134.163 272.95 133.724 272.364 133.167C271.808 132.581 271.397 131.907 271.134 131.146C270.899 130.354 270.782 129.505 270.782 128.597C270.782 127.718 270.914 126.897 271.178 126.136C271.441 125.345 271.852 124.656 272.408 124.07C272.994 123.484 273.741 123.03 274.649 122.708C275.558 122.356 276.642 122.181 277.901 122.181C279.161 122.181 280.23 122.356 281.109 122.708C282.018 123.03 282.75 123.484 283.307 124.07C283.893 124.656 284.317 125.345 284.581 126.136C284.874 126.897 285.021 127.718 285.021 128.597ZM282.384 141.385C282.208 142.996 282.062 144.725 281.944 146.57C281.827 148.416 281.725 150.335 281.637 152.327C281.549 154.29 281.49 156.297 281.461 158.348C281.432 160.369 281.417 162.361 281.417 164.324C281.417 166.609 281.432 168.821 281.461 170.96C281.52 173.069 281.578 175.018 281.637 176.805C281.725 178.592 281.812 180.174 281.9 181.551C282.018 182.928 282.149 183.997 282.296 184.759C281.124 184.759 279.908 184.788 278.648 184.847C277.564 184.905 276.349 184.979 275.001 185.066C273.653 185.154 272.306 185.286 270.958 185.462C271.456 180.188 271.793 175.369 271.969 171.004C272.145 166.609 272.232 162.669 272.232 159.183C272.232 156.194 272.174 153.587 272.057 151.36C271.969 149.104 271.866 147.2 271.749 145.647C271.632 143.831 271.485 142.278 271.31 140.989C272.95 141.194 274.444 141.326 275.792 141.385C277.169 141.443 278.355 141.473 279.352 141.473C279.82 141.473 280.245 141.473 280.626 141.473C281.007 141.473 281.329 141.458 281.593 141.429C281.915 141.429 282.179 141.414 282.384 141.385ZM313.058 161.819C313.058 165.394 312.896 168.528 312.574 171.224C312.252 173.919 311.783 176.263 311.168 178.255C310.582 180.218 309.864 181.858 309.015 183.177C308.194 184.466 307.271 185.506 306.246 186.297C305.25 187.088 304.166 187.645 302.994 187.967C301.822 188.289 300.621 188.45 299.391 188.45C298.16 188.45 296.974 188.318 295.831 188.055C294.718 187.791 293.678 187.308 292.711 186.604C291.744 185.901 290.851 184.949 290.03 183.748C289.239 182.547 288.565 181.009 288.009 179.134C287.452 177.259 287.013 175.018 286.69 172.41C286.397 169.803 286.251 166.741 286.251 163.226C286.251 157.952 286.632 153.631 287.394 150.262C288.185 146.893 289.21 144.241 290.47 142.308C291.729 140.345 293.165 138.997 294.776 138.265C296.388 137.503 298.043 137.122 299.742 137.122C300.826 137.122 301.91 137.239 302.994 137.474C304.107 137.679 305.147 138.104 306.114 138.748C307.11 139.393 308.033 140.286 308.883 141.429C309.732 142.571 310.465 144.065 311.08 145.911C311.695 147.728 312.179 149.939 312.53 152.547C312.882 155.154 313.058 158.245 313.058 161.819ZM303.609 162.171C303.609 159.358 303.507 157.059 303.302 155.271C303.097 153.455 302.818 152.02 302.467 150.965C302.115 149.91 301.69 149.192 301.192 148.812C300.694 148.401 300.152 148.196 299.566 148.196C298.893 148.196 298.307 148.489 297.809 149.075C297.311 149.632 296.886 150.54 296.534 151.8C296.212 153.06 295.963 154.686 295.787 156.678C295.611 158.641 295.523 161.043 295.523 163.885C295.523 166.756 295.626 169.144 295.831 171.048C296.065 172.923 296.373 174.432 296.754 175.574C297.164 176.688 297.633 177.479 298.16 177.947C298.717 178.416 299.303 178.65 299.918 178.65C301.207 178.65 302.145 177.317 302.73 174.651C303.316 171.985 303.609 167.825 303.609 162.171ZM335.118 186.736C335.763 182.02 336.217 177.244 336.48 172.41C336.773 167.576 336.92 162.508 336.92 157.205C336.92 155.418 336.803 153.997 336.568 152.942C336.334 151.858 336.026 151.038 335.646 150.481C335.265 149.896 334.854 149.529 334.415 149.383C333.976 149.207 333.551 149.119 333.141 149.119C332.555 149.119 331.998 149.222 331.471 149.427C330.973 149.632 330.504 150.027 330.064 150.613C329.625 151.199 329.215 152.02 328.834 153.074C328.482 154.129 328.175 155.521 327.911 157.249C327.647 158.978 327.442 161.087 327.296 163.577C327.179 166.038 327.12 168.982 327.12 172.41C327.12 173.641 327.12 174.93 327.12 176.277C327.12 177.596 327.12 178.855 327.12 180.057C327.149 181.258 327.164 182.327 327.164 183.265C327.193 184.173 327.237 184.817 327.296 185.198L317.364 185.11C317.452 182.444 317.511 180.071 317.54 177.991C317.599 175.882 317.643 173.948 317.672 172.19C317.701 170.433 317.716 168.792 317.716 167.269C317.745 165.716 317.76 164.192 317.76 162.698C317.76 161.351 317.745 159.974 317.716 158.567C317.716 157.132 317.701 155.594 317.672 153.953C317.672 152.312 317.643 150.525 317.584 148.592C317.555 146.629 317.511 144.461 317.452 142.088L327.735 141.824L327.56 146.307C328.351 144.812 329.2 143.626 330.108 142.747C331.017 141.839 331.91 141.136 332.789 140.638C333.697 140.14 334.576 139.817 335.426 139.671C336.275 139.495 337.037 139.407 337.711 139.407C339.527 139.407 341.021 140.037 342.193 141.297C343.365 142.557 344.288 144.241 344.962 146.351C345.665 148.431 346.148 150.818 346.412 153.514C346.676 156.209 346.808 159.007 346.808 161.907C346.808 164.017 346.749 166.155 346.632 168.323C346.544 170.491 346.427 172.63 346.28 174.739C346.163 176.819 346.017 178.841 345.841 180.804C345.694 182.737 345.562 184.539 345.445 186.209L335.118 186.736ZM377.833 159.007C377.833 163.636 377.804 168.265 377.745 172.894C377.716 177.522 377.628 182.342 377.481 187.352L369.835 186.912V180.979C368.956 182.562 367.96 183.777 366.847 184.627C365.733 185.447 364.679 186.062 363.683 186.473C362.511 186.941 361.354 187.205 360.211 187.264C358.805 187.264 357.486 186.956 356.256 186.341C355.025 185.696 353.956 184.847 353.048 183.792C352.14 182.737 351.422 181.536 350.895 180.188C350.396 178.812 350.147 177.391 350.147 175.926C350.147 174.256 350.499 172.615 351.202 171.004C351.935 169.363 353.165 167.884 354.894 166.565C357.208 164.778 359.215 163.284 360.914 162.083C362.613 160.882 364.02 159.798 365.133 158.831C366.275 157.835 367.11 156.897 367.638 156.019C368.194 155.11 368.473 154.07 368.473 152.898C368.473 150.965 368.15 149.529 367.506 148.592C366.861 147.625 366.012 147.142 364.957 147.142C364.312 147.142 363.756 147.317 363.287 147.669C362.848 147.991 362.481 148.431 362.188 148.987C361.925 149.515 361.72 150.115 361.573 150.789C361.456 151.434 361.397 152.078 361.397 152.723C361.397 153.162 361.412 153.646 361.441 154.173C361.5 154.7 361.603 155.257 361.749 155.843L351.642 156.019C351.583 155.521 351.539 155.052 351.51 154.612C351.48 154.144 351.466 153.689 351.466 153.25C351.466 151.434 351.773 149.646 352.389 147.889C353.004 146.102 353.897 144.52 355.069 143.143C356.271 141.736 357.721 140.608 359.42 139.759C361.119 138.909 363.067 138.484 365.265 138.484C368.106 138.484 370.348 139.085 371.988 140.286C373.658 141.458 374.918 143.011 375.768 144.944C376.646 146.878 377.203 149.075 377.438 151.536C377.701 153.968 377.833 156.458 377.833 159.007ZM367.945 171.443C368.092 170.711 368.224 169.876 368.341 168.938C368.458 168.147 368.561 167.195 368.648 166.082C368.736 164.939 368.81 163.665 368.868 162.259C368.399 162.903 367.945 163.475 367.506 163.973C367.066 164.471 366.656 164.91 366.275 165.291C365.836 165.73 365.426 166.126 365.045 166.478C364.371 167.034 363.653 167.664 362.892 168.367C362.13 169.041 361.427 169.759 360.782 170.521C360.167 171.282 359.64 172.073 359.2 172.894C358.79 173.685 358.585 174.461 358.585 175.223C358.585 176.043 358.863 176.805 359.42 177.508C359.977 178.182 360.665 178.519 361.485 178.519C362.101 178.519 362.73 178.343 363.375 177.991C364.049 177.64 364.679 177.142 365.265 176.497C365.88 175.853 366.422 175.105 366.891 174.256C367.359 173.406 367.711 172.469 367.945 171.443ZM409.298 159.93C408.36 160.076 407.379 160.252 406.354 160.457C405.475 160.633 404.479 160.867 403.365 161.16C402.252 161.453 401.139 161.79 400.025 162.171C400.318 160.706 400.509 159.432 400.597 158.348C400.714 157.234 400.772 156.224 400.772 155.315C400.772 153.733 400.626 152.503 400.333 151.624C400.069 150.716 399.762 150.042 399.41 149.603C399.059 149.163 398.707 148.899 398.355 148.812C398.033 148.724 397.813 148.68 397.696 148.68C396.759 148.68 395.997 149.075 395.411 149.866C394.825 150.628 394.371 151.653 394.049 152.942C393.727 154.202 393.507 155.652 393.39 157.293C393.272 158.934 393.214 160.618 393.214 162.347C393.214 163.577 393.229 164.808 393.258 166.038C393.287 167.269 393.331 168.499 393.39 169.729L394.005 187L383.854 187.703C383.854 180.643 383.78 174.285 383.634 168.631C383.517 162.947 383.385 158.099 383.238 154.085C383.062 149.397 382.872 145.223 382.667 141.561L391.324 140.989L391.764 145.955C392.525 144.08 393.419 142.601 394.444 141.517C395.499 140.403 396.539 139.583 397.564 139.056C398.619 138.499 399.571 138.147 400.421 138.001C401.3 137.854 401.959 137.781 402.398 137.781C403.893 137.781 405.108 138.265 406.046 139.231C406.983 140.169 407.716 141.385 408.243 142.879C408.771 144.373 409.122 146.014 409.298 147.801C409.503 149.588 409.605 151.316 409.605 152.986C409.605 154.305 409.562 155.564 409.474 156.766C409.415 157.938 409.356 158.992 409.298 159.93ZM454.781 143.626C454.547 148.343 454.386 153.016 454.298 157.645C454.21 162.244 454.166 166.873 454.166 171.531C454.166 174.285 454.166 177.01 454.166 179.705C454.195 182.4 454.254 185.125 454.342 187.879L445.597 188.099V182.605C444.718 184.041 443.736 185.14 442.652 185.901C441.568 186.663 440.528 187.205 439.532 187.527C438.565 187.879 437.73 188.069 437.027 188.099C436.324 188.157 435.914 188.187 435.797 188.187C433.951 187.806 432.413 187 431.183 185.77C429.981 184.51 429.015 182.957 428.282 181.111C427.579 179.236 427.081 177.127 426.788 174.783C426.495 172.439 426.349 169.979 426.349 167.4C426.349 165.174 426.437 162.903 426.612 160.589C426.788 158.274 427.008 156.004 427.271 153.777C427.535 151.521 427.828 149.354 428.15 147.273C428.473 145.164 428.795 143.201 429.117 141.385L438.697 141.561C438.434 143.289 438.155 145.164 437.862 147.186C437.599 149.207 437.35 151.272 437.115 153.382C436.91 155.491 436.734 157.615 436.588 159.754C436.471 161.863 436.412 163.87 436.412 165.774C436.412 167.532 436.485 169.173 436.632 170.696C436.778 172.22 437.013 173.553 437.335 174.695C437.657 175.809 438.067 176.688 438.565 177.332C439.093 177.947 439.737 178.255 440.499 178.255C441.495 178.255 442.315 177.654 442.96 176.453C443.604 175.252 444.103 173.685 444.454 171.751C444.835 169.788 445.084 167.591 445.201 165.159C445.348 162.728 445.421 160.281 445.421 157.82C445.421 155.975 445.392 154.217 445.333 152.547C445.274 150.877 445.216 149.383 445.157 148.064C445.069 146.541 444.981 145.12 444.894 143.802L454.781 143.626ZM487.037 159.095C486.92 162.61 486.803 166.009 486.686 169.29C486.627 170.696 486.568 172.146 486.51 173.641C486.451 175.135 486.378 176.6 486.29 178.035C486.231 179.441 486.173 180.804 486.114 182.122C486.056 183.411 485.997 184.554 485.938 185.55L476.314 186.473C476.549 182.605 476.739 179.222 476.886 176.321C477.032 173.392 477.135 170.887 477.193 168.807C477.281 166.697 477.34 164.939 477.369 163.533C477.398 162.127 477.398 160.999 477.369 160.149C477.369 159.3 477.354 158.67 477.325 158.26C477.325 157.85 477.325 157.586 477.325 157.469C477.325 155.828 477.252 154.495 477.105 153.47C476.988 152.444 476.812 151.639 476.578 151.053C476.344 150.467 476.051 150.071 475.699 149.866C475.377 149.661 475.011 149.559 474.601 149.559C474.073 149.559 473.531 149.661 472.975 149.866C472.447 150.042 471.964 150.423 471.524 151.009C471.114 151.565 470.777 152.371 470.514 153.426C470.25 154.48 470.118 155.887 470.118 157.645C470.118 160.984 470.118 164.251 470.118 167.444C470.147 170.608 470.191 173.465 470.25 176.014C470.279 178.973 470.323 181.8 470.382 184.495L459.923 185.462C460.157 182.356 460.304 179.324 460.362 176.365C460.45 173.406 460.494 170.74 460.494 168.367C460.494 163.914 460.392 159.505 460.187 155.14C460.011 150.745 459.688 146.189 459.22 141.473C461.095 141.414 462.633 141.341 463.834 141.253C465.035 141.165 465.987 141.062 466.69 140.945C467.511 140.828 468.141 140.696 468.58 140.55L468.668 145.867C469.283 144.871 469.957 143.934 470.689 143.055C471.451 142.176 472.242 141.429 473.062 140.813C473.883 140.169 474.732 139.671 475.611 139.319C476.52 138.938 477.442 138.748 478.38 138.748C479.435 138.748 480.357 138.836 481.148 139.012C481.969 139.158 482.672 139.466 483.258 139.935C483.873 140.374 484.386 141.004 484.796 141.824C485.206 142.615 485.558 143.641 485.851 144.9C486.378 144.08 486.949 143.304 487.564 142.571C488.209 141.81 488.897 141.15 489.63 140.594C490.392 140.008 491.197 139.554 492.047 139.231C492.896 138.909 493.834 138.748 494.859 138.748C496.471 138.748 497.833 138.938 498.946 139.319C500.06 139.7 500.953 140.477 501.627 141.648C502.33 142.791 502.828 144.432 503.121 146.57C503.443 148.68 503.604 151.478 503.604 154.964C503.604 159.974 503.487 164.998 503.253 170.037C503.019 175.047 502.77 180.218 502.506 185.55L492.882 186.473C493.233 181.082 493.468 176.556 493.585 172.894C493.731 169.202 493.819 166.229 493.849 163.973C493.878 161.717 493.878 160.091 493.849 159.095C493.819 158.069 493.805 157.498 493.805 157.381C493.805 155.77 493.717 154.451 493.541 153.426C493.395 152.4 493.175 151.609 492.882 151.053C492.618 150.467 492.296 150.071 491.915 149.866C491.563 149.661 491.168 149.559 490.729 149.559C490.465 149.559 490.172 149.588 489.85 149.646C489.527 149.676 489.19 149.822 488.839 150.086C488.487 150.32 488.136 150.701 487.784 151.229C487.462 151.756 487.154 152.488 486.861 153.426C486.949 154.744 486.993 155.916 486.993 156.941C487.022 157.967 487.037 158.685 487.037 159.095ZM534.542 159.007C534.542 163.636 534.513 168.265 534.454 172.894C534.425 177.522 534.337 182.342 534.19 187.352L526.544 186.912V180.979C525.665 182.562 524.669 183.777 523.556 184.627C522.442 185.447 521.388 186.062 520.392 186.473C519.22 186.941 518.062 187.205 516.92 187.264C515.514 187.264 514.195 186.956 512.965 186.341C511.734 185.696 510.665 184.847 509.757 183.792C508.849 182.737 508.131 181.536 507.604 180.188C507.105 178.812 506.856 177.391 506.856 175.926C506.856 174.256 507.208 172.615 507.911 171.004C508.644 169.363 509.874 167.884 511.603 166.565C513.917 164.778 515.924 163.284 517.623 162.083C519.322 160.882 520.729 159.798 521.842 158.831C522.984 157.835 523.819 156.897 524.347 156.019C524.903 155.11 525.182 154.07 525.182 152.898C525.182 150.965 524.859 149.529 524.215 148.592C523.57 147.625 522.721 147.142 521.666 147.142C521.021 147.142 520.465 147.317 519.996 147.669C519.557 147.991 519.19 148.431 518.897 148.987C518.634 149.515 518.429 150.115 518.282 150.789C518.165 151.434 518.106 152.078 518.106 152.723C518.106 153.162 518.121 153.646 518.15 154.173C518.209 154.7 518.312 155.257 518.458 155.843L508.351 156.019C508.292 155.521 508.248 155.052 508.219 154.612C508.189 154.144 508.175 153.689 508.175 153.25C508.175 151.434 508.482 149.646 509.098 147.889C509.713 146.102 510.606 144.52 511.778 143.143C512.979 141.736 514.43 140.608 516.129 139.759C517.828 138.909 519.776 138.484 521.974 138.484C524.815 138.484 527.057 139.085 528.697 140.286C530.367 141.458 531.627 143.011 532.477 144.944C533.355 146.878 533.912 149.075 534.146 151.536C534.41 153.968 534.542 156.458 534.542 159.007ZM524.654 171.443C524.801 170.711 524.933 169.876 525.05 168.938C525.167 168.147 525.27 167.195 525.357 166.082C525.445 164.939 525.519 163.665 525.577 162.259C525.108 162.903 524.654 163.475 524.215 163.973C523.775 164.471 523.365 164.91 522.984 165.291C522.545 165.73 522.135 166.126 521.754 166.478C521.08 167.034 520.362 167.664 519.601 168.367C518.839 169.041 518.136 169.759 517.491 170.521C516.876 171.282 516.349 172.073 515.909 172.894C515.499 173.685 515.294 174.461 515.294 175.223C515.294 176.043 515.572 176.805 516.129 177.508C516.686 178.182 517.374 178.519 518.194 178.519C518.81 178.519 519.439 178.343 520.084 177.991C520.758 177.64 521.388 177.142 521.974 176.497C522.589 175.853 523.131 175.105 523.6 174.256C524.068 173.406 524.42 172.469 524.654 171.443ZM586.002 187.088C586.09 182.605 586.192 178.05 586.31 173.421C586.339 171.458 586.368 169.378 586.397 167.181C586.456 164.983 586.5 162.757 586.529 160.501C586.559 158.245 586.573 155.989 586.573 153.733C586.603 151.478 586.617 149.31 586.617 147.229C586.617 145.853 586.617 144.549 586.617 143.318C586.617 142.059 586.588 140.872 586.529 139.759C586.178 141.927 585.724 144.725 585.167 148.152C584.64 151.551 584.083 155.315 583.497 159.446C582.911 163.548 582.325 167.898 581.739 172.498C581.183 177.098 580.685 181.668 580.245 186.209L571.896 185.989C571.192 181.419 570.504 176.922 569.83 172.498C569.186 168.074 568.556 163.87 567.94 159.886C567.354 155.901 566.812 152.21 566.314 148.812C565.816 145.413 565.392 142.454 565.04 139.935V155.228C565.04 158.392 565.055 161.585 565.084 164.808C565.113 168.001 565.143 171.019 565.172 173.86C565.23 176.702 565.304 179.266 565.392 181.551C565.479 183.807 565.597 185.564 565.743 186.824L553.79 187.527C554.229 185.037 554.581 182.239 554.845 179.134C555.138 176.028 555.357 172.776 555.504 169.378C555.68 165.979 555.797 162.522 555.855 159.007C555.914 155.491 555.943 152.078 555.943 148.768C555.943 145.369 555.914 142.19 555.855 139.231C555.826 136.272 555.782 133.68 555.724 131.453C555.636 128.846 555.562 126.458 555.504 124.29C556.441 124.437 557.423 124.568 558.448 124.686C559.474 124.773 560.484 124.847 561.48 124.905C562.477 124.964 563.443 125.008 564.381 125.037C565.318 125.066 566.168 125.081 566.93 125.081C567.428 125.081 567.882 125.081 568.292 125.081C568.731 125.081 569.112 125.066 569.435 125.037C569.786 125.037 570.094 125.022 570.357 124.993C571.764 134.72 572.95 142.923 573.917 149.603C574.884 156.282 575.646 161.365 576.202 164.852C576.524 162.625 576.832 160.34 577.125 157.996C577.447 155.623 577.74 153.279 578.004 150.965C578.268 148.65 578.502 146.395 578.707 144.197C578.941 141.971 579.146 139.876 579.322 137.913C579.732 133.284 580.099 128.802 580.421 124.466C581.065 124.524 581.769 124.583 582.53 124.642C583.204 124.7 583.995 124.744 584.903 124.773C585.841 124.803 586.866 124.817 587.979 124.817C589.093 124.817 590.294 124.803 591.583 124.773C592.872 124.715 594.22 124.612 595.626 124.466C595.274 135.423 595.099 144.9 595.099 152.898C595.099 158.787 595.157 163.855 595.274 168.104C595.421 172.352 595.567 175.867 595.714 178.65C595.89 181.932 596.109 184.656 596.373 186.824L586.002 187.088ZM629.244 143.626C629.01 148.343 628.849 153.016 628.761 157.645C628.673 162.244 628.629 166.873 628.629 171.531C628.629 174.285 628.629 177.01 628.629 179.705C628.658 182.4 628.717 185.125 628.805 187.879L620.06 188.099V182.605C619.181 184.041 618.199 185.14 617.115 185.901C616.031 186.663 614.991 187.205 613.995 187.527C613.028 187.879 612.193 188.069 611.49 188.099C610.787 188.157 610.377 188.187 610.26 188.187C608.414 187.806 606.876 187 605.646 185.77C604.444 184.51 603.478 182.957 602.745 181.111C602.042 179.236 601.544 177.127 601.251 174.783C600.958 172.439 600.812 169.979 600.812 167.4C600.812 165.174 600.899 162.903 601.075 160.589C601.251 158.274 601.471 156.004 601.734 153.777C601.998 151.521 602.291 149.354 602.613 147.273C602.936 145.164 603.258 143.201 603.58 141.385L613.16 141.561C612.896 143.289 612.618 145.164 612.325 147.186C612.062 149.207 611.812 151.272 611.578 153.382C611.373 155.491 611.197 157.615 611.051 159.754C610.934 161.863 610.875 163.87 610.875 165.774C610.875 167.532 610.948 169.173 611.095 170.696C611.241 172.22 611.476 173.553 611.798 174.695C612.12 175.809 612.53 176.688 613.028 177.332C613.556 177.947 614.2 178.255 614.962 178.255C615.958 178.255 616.778 177.654 617.423 176.453C618.067 175.252 618.565 173.685 618.917 171.751C619.298 169.788 619.547 167.591 619.664 165.159C619.811 162.728 619.884 160.281 619.884 157.82C619.884 155.975 619.854 154.217 619.796 152.547C619.737 150.877 619.679 149.383 619.62 148.064C619.532 146.541 619.444 145.12 619.356 143.802L629.244 143.626ZM622.696 122.356C623.429 122.884 624.205 123.47 625.025 124.114C625.875 124.729 626.651 125.315 627.354 125.872C628.175 126.517 628.98 127.176 629.771 127.85L618.17 140.33L614.039 137.298L622.696 122.356ZM654.82 173.86C654.82 176.468 654.381 178.65 653.502 180.408C652.652 182.137 651.568 183.528 650.25 184.583C648.961 185.638 647.54 186.399 645.987 186.868C644.435 187.308 642.97 187.527 641.593 187.527C640.567 187.498 639.571 187.381 638.604 187.176C637.755 187 636.847 186.736 635.88 186.385C634.942 186.004 634.093 185.462 633.331 184.759L633.683 174.739C634.737 175.589 635.807 176.248 636.891 176.717C637.975 177.186 638.971 177.537 639.879 177.771C640.934 178.035 641.959 178.196 642.955 178.255C643.775 177.815 644.405 177.2 644.845 176.409C645.313 175.589 645.548 174.681 645.548 173.685C645.548 172.835 645.343 171.941 644.933 171.004C644.552 170.037 643.951 169.129 643.131 168.279C642.311 167.459 641.329 166.478 640.187 165.335C639.073 164.163 637.989 162.845 636.935 161.38C635.909 159.915 635.03 158.289 634.298 156.502C633.595 154.715 633.243 152.767 633.243 150.657C633.243 148.577 633.521 146.688 634.078 144.988C634.664 143.26 635.47 141.78 636.495 140.55C637.55 139.319 638.795 138.367 640.23 137.693C641.695 137.02 643.292 136.683 645.021 136.683C646.427 136.683 647.95 136.902 649.591 137.342C651.231 137.752 652.975 138.411 654.82 139.319L654.117 149.559C653.355 148.885 652.55 148.343 651.7 147.933C650.851 147.493 650.06 147.156 649.327 146.922C648.478 146.658 647.643 146.482 646.822 146.395C645.709 146.6 644.757 147.186 643.966 148.152C643.175 149.09 642.779 150.306 642.779 151.8C642.779 153.206 643.058 154.437 643.614 155.491C644.2 156.517 644.918 157.498 645.768 158.436C646.646 159.344 647.599 160.267 648.624 161.204C649.649 162.112 650.602 163.152 651.48 164.324C652.389 165.496 653.15 166.844 653.766 168.367C654.41 169.891 654.762 171.722 654.82 173.86ZM672.53 128.597C672.53 129.505 672.384 130.354 672.091 131.146C671.798 131.907 671.358 132.581 670.772 133.167C670.187 133.724 669.439 134.163 668.531 134.485C667.652 134.808 666.612 134.969 665.411 134.969C664.093 134.969 662.979 134.808 662.071 134.485C661.192 134.163 660.46 133.724 659.874 133.167C659.317 132.581 658.907 131.907 658.644 131.146C658.409 130.354 658.292 129.505 658.292 128.597C658.292 127.718 658.424 126.897 658.688 126.136C658.951 125.345 659.361 124.656 659.918 124.07C660.504 123.484 661.251 123.03 662.159 122.708C663.067 122.356 664.151 122.181 665.411 122.181C666.671 122.181 667.74 122.356 668.619 122.708C669.527 123.03 670.26 123.484 670.816 124.07C671.402 124.656 671.827 125.345 672.091 126.136C672.384 126.897 672.53 127.718 672.53 128.597ZM669.894 141.385C669.718 142.996 669.571 144.725 669.454 146.57C669.337 148.416 669.234 150.335 669.146 152.327C669.059 154.29 669 156.297 668.971 158.348C668.941 160.369 668.927 162.361 668.927 164.324C668.927 166.609 668.941 168.821 668.971 170.96C669.029 173.069 669.088 175.018 669.146 176.805C669.234 178.592 669.322 180.174 669.41 181.551C669.527 182.928 669.659 183.997 669.806 184.759C668.634 184.759 667.418 184.788 666.158 184.847C665.074 184.905 663.858 184.979 662.511 185.066C661.163 185.154 659.815 185.286 658.468 185.462C658.966 180.188 659.303 175.369 659.479 171.004C659.654 166.609 659.742 162.669 659.742 159.183C659.742 156.194 659.684 153.587 659.566 151.36C659.479 149.104 659.376 147.2 659.259 145.647C659.142 143.831 658.995 142.278 658.819 140.989C660.46 141.194 661.954 141.326 663.302 141.385C664.679 141.443 665.865 141.473 666.861 141.473C667.33 141.473 667.755 141.473 668.136 141.473C668.517 141.473 668.839 141.458 669.103 141.429C669.425 141.429 669.688 141.414 669.894 141.385ZM694.723 150.921C694.312 150.394 693.814 149.983 693.229 149.69C692.643 149.397 692.057 149.178 691.471 149.031C690.885 148.885 690.343 148.797 689.845 148.768C689.347 148.709 688.995 148.68 688.79 148.68C687.911 148.68 687.12 149.061 686.417 149.822C685.743 150.584 685.157 151.668 684.659 153.074C684.19 154.48 683.824 156.194 683.561 158.216C683.326 160.208 683.209 162.449 683.209 164.939C683.209 167.342 683.37 169.539 683.692 171.531C684.044 173.494 684.645 175.193 685.494 176.629C686.344 178.035 687.486 179.163 688.922 180.013C690.357 180.862 692.174 181.36 694.371 181.507L694.107 189.065C693.609 189.124 693.111 189.168 692.613 189.197C692.145 189.227 691.676 189.241 691.207 189.241C688.688 189.241 686.505 188.919 684.659 188.274C682.843 187.659 681.29 186.78 680.001 185.638C678.712 184.495 677.657 183.147 676.837 181.595C676.046 180.013 675.416 178.299 674.947 176.453C674.479 174.578 674.156 172.601 673.98 170.521C673.834 168.411 673.761 166.258 673.761 164.061C673.761 162.537 673.79 160.853 673.849 159.007C673.937 157.132 674.112 155.257 674.376 153.382C674.669 151.478 675.094 149.632 675.65 147.845C676.236 146.058 677.027 144.476 678.023 143.099C679.02 141.692 680.265 140.579 681.759 139.759C683.282 138.909 685.113 138.484 687.252 138.484C688.189 138.484 689.098 138.558 689.977 138.704C690.855 138.851 691.661 139.041 692.394 139.275C693.126 139.48 693.756 139.715 694.283 139.979C694.811 140.213 695.191 140.433 695.426 140.638L694.723 150.921ZM724.913 159.007C724.913 163.636 724.884 168.265 724.825 172.894C724.796 177.522 724.708 182.342 724.562 187.352L716.915 186.912V180.979C716.036 182.562 715.04 183.777 713.927 184.627C712.813 185.447 711.759 186.062 710.763 186.473C709.591 186.941 708.434 187.205 707.291 187.264C705.885 187.264 704.566 186.956 703.336 186.341C702.105 185.696 701.036 184.847 700.128 183.792C699.22 182.737 698.502 181.536 697.975 180.188C697.477 178.812 697.228 177.391 697.228 175.926C697.228 174.256 697.579 172.615 698.282 171.004C699.015 169.363 700.245 167.884 701.974 166.565C704.288 164.778 706.295 163.284 707.994 162.083C709.693 160.882 711.1 159.798 712.213 158.831C713.355 157.835 714.19 156.897 714.718 156.019C715.274 155.11 715.553 154.07 715.553 152.898C715.553 150.965 715.23 149.529 714.586 148.592C713.941 147.625 713.092 147.142 712.037 147.142C711.393 147.142 710.836 147.317 710.367 147.669C709.928 147.991 709.562 148.431 709.269 148.987C709.005 149.515 708.8 150.115 708.653 150.789C708.536 151.434 708.478 152.078 708.478 152.723C708.478 153.162 708.492 153.646 708.521 154.173C708.58 154.7 708.683 155.257 708.829 155.843L698.722 156.019C698.663 155.521 698.619 155.052 698.59 154.612C698.561 154.144 698.546 153.689 698.546 153.25C698.546 151.434 698.854 149.646 699.469 147.889C700.084 146.102 700.978 144.52 702.149 143.143C703.351 141.736 704.801 140.608 706.5 139.759C708.199 138.909 710.147 138.484 712.345 138.484C715.187 138.484 717.428 139.085 719.068 140.286C720.738 141.458 721.998 143.011 722.848 144.944C723.727 146.878 724.283 149.075 724.518 151.536C724.781 153.968 724.913 156.458 724.913 159.007ZM715.025 171.443C715.172 170.711 715.304 169.876 715.421 168.938C715.538 168.147 715.641 167.195 715.729 166.082C715.816 164.939 715.89 163.665 715.948 162.259C715.479 162.903 715.025 163.475 714.586 163.973C714.146 164.471 713.736 164.91 713.355 165.291C712.916 165.73 712.506 166.126 712.125 166.478C711.451 167.034 710.733 167.664 709.972 168.367C709.21 169.041 708.507 169.759 707.862 170.521C707.247 171.282 706.72 172.073 706.28 172.894C705.87 173.685 705.665 174.461 705.665 175.223C705.665 176.043 705.943 176.805 706.5 177.508C707.057 178.182 707.745 178.519 708.565 178.519C709.181 178.519 709.811 178.343 710.455 177.991C711.129 177.64 711.759 177.142 712.345 176.497C712.96 175.853 713.502 175.105 713.971 174.256C714.439 173.406 714.791 172.469 715.025 171.443Z" fill="#015A9B"/>
</svg>
