<svg width="318" height="69" viewBox="0 0 318 69" fill="none" xmlns="http://www.w3.org/2000/svg">
<g filter="url(#filter0_d)">
<path d="M36.8775 13.6L39.3275 49H31.8775L30.8275 30.05L31.4275 24.95H30.9775L25.6775 46.85L18.2275 47.3L12.6775 25H12.2275L12.8275 29.95L12.0275 49H5.47754L7.37754 13.6H16.6775L21.6775 34.1L22.4275 39.05H22.7275L23.2775 34.15L27.7775 13.6H36.8775ZM56.5764 22L63.4264 22.75L57.3264 44.4C56.7264 46.6 56.0764 48.4167 55.3764 49.85C54.7097 51.3167 53.843 52.75 52.7764 54.15C51.7097 55.5833 50.3597 56.7167 48.7264 57.55C47.1264 58.4167 45.5097 58.9 43.8764 59L41.1764 54.2C45.2097 53.4667 47.5764 51.6 48.2764 48.6C47.4097 45.7333 46.1097 41.25 44.3764 35.15C42.6764 29.05 41.5097 24.9167 40.8764 22.75L48.4264 22L52.1264 41.85H52.4764L56.5764 22Z" fill="#FEFEFE"/>
<path d="M36.8775 13.6L37.8752 13.531L37.8107 12.6H36.8775V13.6ZM39.3275 49V50H40.3991L40.3252 48.931L39.3275 49ZM31.8775 49L30.8791 49.0553L30.9314 50H31.8775V49ZM30.8275 30.05L29.8344 29.9332L29.8243 30.019L29.8291 30.1053L30.8275 30.05ZM31.4275 24.95L32.4207 25.0668L32.5521 23.95H31.4275V24.95ZM30.9775 24.95V23.95H30.1907L30.0056 24.7148L30.9775 24.95ZM25.6775 46.85L25.7378 47.8482L26.4756 47.8036L26.6495 47.0852L25.6775 46.85ZM18.2275 47.3L17.2571 47.5415L17.4579 48.3483L18.2878 48.2982L18.2275 47.3ZM12.6775 25L13.6479 24.7585L13.4592 24H12.6775V25ZM12.2275 25V24H11.099L11.2348 25.1203L12.2275 25ZM12.8275 29.95L13.8267 29.992L13.8301 29.9106L13.8203 29.8297L12.8275 29.95ZM12.0275 49V50H12.9864L13.0267 49.042L12.0275 49ZM5.47754 49L4.47898 48.9464L4.42243 50H5.47754V49ZM7.37754 13.6V12.6H6.42977L6.37898 13.5464L7.37754 13.6ZM16.6775 13.6L17.6491 13.363L17.463 12.6H16.6775V13.6ZM21.6775 34.1L22.6663 33.9502L22.6596 33.9062L22.6491 33.863L21.6775 34.1ZM22.4275 39.05L21.4388 39.1998L21.5676 40.05H22.4275V39.05ZM22.7275 39.05V40.05H23.6216L23.7213 39.1615L22.7275 39.05ZM23.2775 34.15L22.3007 33.9361L22.2896 33.9868L22.2838 34.0385L23.2775 34.15ZM27.7775 13.6V12.6H26.9728L26.8007 13.3861L27.7775 13.6ZM35.8799 13.669L38.3299 49.069L40.3252 48.931L37.8752 13.531L35.8799 13.669ZM39.3275 48H31.8775V50H39.3275V48ZM32.876 48.9447L31.826 29.9947L29.8291 30.1053L30.8791 49.0553L32.876 48.9447ZM31.8207 30.1668L32.4207 25.0668L30.4344 24.8332L29.8344 29.9332L31.8207 30.1668ZM31.4275 23.95H30.9775V25.95H31.4275V23.95ZM30.0056 24.7148L24.7056 46.6148L26.6495 47.0852L31.9495 25.1852L30.0056 24.7148ZM25.6172 45.8518L18.1672 46.3018L18.2878 48.2982L25.7378 47.8482L25.6172 45.8518ZM19.1979 47.0585L13.6479 24.7585L11.7071 25.2415L17.2571 47.5415L19.1979 47.0585ZM12.6775 24H12.2275V26H12.6775V24ZM11.2348 25.1203L11.8348 30.0703L13.8203 29.8297L13.2203 24.8797L11.2348 25.1203ZM11.8284 29.908L11.0284 48.958L13.0267 49.042L13.8267 29.992L11.8284 29.908ZM12.0275 48H5.47754V50H12.0275V48ZM6.4761 49.0536L8.3761 13.6536L6.37898 13.5464L4.47898 48.9464L6.4761 49.0536ZM7.37754 14.6H16.6775V12.6H7.37754V14.6ZM15.706 13.837L20.706 34.337L22.6491 33.863L17.6491 13.363L15.706 13.837ZM20.6888 34.2498L21.4388 39.1998L23.4163 38.9002L22.6663 33.9502L20.6888 34.2498ZM22.4275 40.05H22.7275V38.05H22.4275V40.05ZM23.7213 39.1615L24.2713 34.2615L22.2838 34.0385L21.7338 38.9385L23.7213 39.1615ZM24.2544 34.3639L28.7544 13.8139L26.8007 13.3861L22.3007 33.9361L24.2544 34.3639ZM27.7775 14.6H36.8775V12.6H27.7775V14.6ZM56.5764 22L56.6852 21.0059L55.781 20.9069L55.597 21.7977L56.5764 22ZM63.4264 22.75L64.3889 23.0212L64.7092 21.8845L63.5352 21.7559L63.4264 22.75ZM57.3264 44.4L56.3638 44.1288L56.3616 44.1369L57.3264 44.4ZM55.3764 49.85L54.4778 49.4112L54.4717 49.4236L54.466 49.4362L55.3764 49.85ZM52.7764 54.15L51.9809 53.5439L51.9741 53.553L52.7764 54.15ZM48.7264 57.55L48.2719 56.6592L48.2609 56.6648L48.2501 56.6707L48.7264 57.55ZM43.8764 59L43.0048 59.4903L43.312 60.0364L43.9375 59.9981L43.8764 59ZM41.1764 54.2L40.9975 53.2161L39.6168 53.4672L40.3048 54.6903L41.1764 54.2ZM48.2764 48.6L49.2502 48.8272L49.311 48.5667L49.2336 48.3106L48.2764 48.6ZM44.3764 35.15L43.4131 35.4185L43.4144 35.4233L44.3764 35.15ZM40.8764 22.75L40.7775 21.7549L39.5785 21.874L39.9165 23.0306L40.8764 22.75ZM48.4264 22L49.4094 21.8168L49.2412 20.9141L48.3275 21.0049L48.4264 22ZM52.1264 41.85L51.1433 42.0332L51.2955 42.85H52.1264V41.85ZM52.4764 41.85V42.85H53.2909L53.4557 42.0523L52.4764 41.85ZM56.4675 22.9941L63.3175 23.7441L63.5352 21.7559L56.6852 21.0059L56.4675 22.9941ZM62.4638 22.4788L56.3638 44.1288L58.2889 44.6712L64.3889 23.0212L62.4638 22.4788ZM56.3616 44.1369C55.7717 46.2998 55.1413 48.0525 54.4778 49.4112L56.2749 50.2888C57.0114 48.7808 57.681 46.9002 58.2911 44.6631L56.3616 44.1369ZM54.466 49.4362C53.833 50.8287 53.0064 52.1981 51.9809 53.544L53.5718 54.756C54.6797 53.3019 55.5864 51.8046 56.2867 50.2638L54.466 49.4362ZM51.9741 53.553C51.0017 54.8597 49.772 55.8939 48.2719 56.6592L49.1808 58.4408C50.9474 57.5394 52.4177 56.307 53.5786 54.747L51.9741 53.553ZM48.2501 56.6707C46.7637 57.4758 45.2876 57.9117 43.8153 58.0019L43.9375 59.9981C45.7318 59.8883 47.489 59.3575 49.2027 58.4293L48.2501 56.6707ZM44.7479 58.5097L42.0479 53.7097L40.3048 54.6903L43.0048 59.4903L44.7479 58.5097ZM41.3553 55.1839C43.4775 54.798 45.2461 54.0996 46.5957 53.0352C47.9612 51.9581 48.8499 50.5427 49.2502 48.8272L47.3025 48.3728C47.0028 49.6573 46.3582 50.6752 45.3571 51.4648C44.3399 52.2671 42.9085 52.8687 40.9975 53.2161L41.3553 55.1839ZM49.2336 48.3106C48.3695 45.4524 47.0714 40.9758 45.3383 34.8767L43.4144 35.4233C45.148 41.5242 46.4499 46.0142 47.3192 48.8894L49.2336 48.3106ZM45.3397 34.8815C43.6399 28.7822 42.4716 24.643 41.8362 22.4694L39.9165 23.0306C40.5478 25.1903 41.7129 29.3178 43.4131 35.4185L45.3397 34.8815ZM40.9752 23.7451L48.5252 22.9951L48.3275 21.0049L40.7775 21.7549L40.9752 23.7451ZM47.4433 22.1832L51.1433 42.0332L53.1094 41.6668L49.4094 21.8168L47.4433 22.1832ZM52.1264 42.85H52.4764V40.85H52.1264V42.85ZM53.4557 42.0523L57.5557 22.2023L55.597 21.7977L51.497 41.6477L53.4557 42.0523ZM67.0326 13.6V12.6H66.0326V13.6H67.0326ZM84.2326 33.8L83.8311 32.8842L82.8628 33.3087L83.3406 34.2519L84.2326 33.8ZM91.9326 49V50H93.5602L92.8247 48.5481L91.9326 49ZM83.1326 49L82.2165 49.401L82.4787 50H83.1326V49ZM77.3326 35.75L78.2487 35.349L77.9865 34.75H77.3326V35.75ZM75.0826 35.75V34.75H74.0826V35.75H75.0826ZM75.0826 49V50H76.0826V49H75.0826ZM67.0326 49H66.0326V50H67.0326V49ZM75.1826 19.6V18.6H74.1826V19.6H75.1826ZM75.1826 29.65H74.1826V30.65H75.1826V29.65ZM80.9326 20.8L80.1644 21.4402L80.1721 21.4494L80.18 21.4585L80.9326 20.8ZM67.0326 14.6H80.2826V12.6H67.0326V14.6ZM80.2826 14.6C83.6214 14.6 85.94 15.4033 87.4269 16.8333C88.9066 18.2563 89.7326 20.4643 89.7326 23.65H91.7326C91.7326 20.1357 90.817 17.3187 88.8133 15.3917C86.8169 13.4717 83.9105 12.6 80.2826 12.6V14.6ZM89.7326 23.65C89.7326 25.9329 89.2258 27.7987 88.2655 29.2982C87.3064 30.7958 85.8497 31.9991 83.8311 32.8842L84.6342 34.7158C86.9488 33.7009 88.7421 32.2625 89.9497 30.3768C91.1561 28.493 91.7326 26.2338 91.7326 23.65H89.7326ZM83.3406 34.2519L91.0405 49.4519L92.8247 48.5481L85.1247 33.3481L83.3406 34.2519ZM91.9326 48H83.1326V50H91.9326V48ZM84.0487 48.599L78.2487 35.349L76.4165 36.151L82.2165 49.401L84.0487 48.599ZM77.3326 34.75H75.0826V36.75H77.3326V34.75ZM74.0826 35.75V49H76.0826V35.75H74.0826ZM75.0826 48H67.0326V50H75.0826V48ZM68.0326 49V13.6H66.0326V49H68.0326ZM74.1826 19.6V29.65H76.1826V19.6H74.1826ZM75.1826 30.65H77.5326V28.65H75.1826V30.65ZM77.5326 30.65C79.2235 30.65 80.6566 30.133 81.6389 28.952C82.5919 27.8063 82.9826 26.1972 82.9826 24.3H80.9826C80.9826 25.9694 80.6317 27.0354 80.1013 27.673C79.6003 28.2754 78.8084 28.65 77.5326 28.65V30.65ZM82.9826 24.3C82.9826 22.6299 82.6026 21.19 81.6852 20.1415L80.18 21.4585C80.6626 22.01 80.9826 22.9034 80.9826 24.3H82.9826ZM81.7008 20.1598C80.7545 19.0242 79.2195 18.6 77.4326 18.6V20.6C78.979 20.6 79.7774 20.9758 80.1644 21.4402L81.7008 20.1598ZM77.4326 18.6H75.1826V20.6H77.4326V18.6ZM113.391 24.5L112.631 25.1497L112.636 25.1549L113.391 24.5ZM115.791 32L116.789 31.9288L116.788 31.9217L116.788 31.9146L115.791 32ZM115.941 37.25L116.081 38.2402L116.941 38.119V37.25H115.941ZM112.391 37.75V38.75H112.461L112.531 38.7402L112.391 37.75ZM102.091 37.75V36.75H101.091V37.75H102.091ZM103.191 42.2L102.385 42.7914L102.39 42.7979L102.395 42.8044L103.191 42.2ZM113.941 42.2L114.891 41.8868L114.568 40.909L113.6 41.2599L113.941 42.2ZM115.491 46.9L115.985 47.7694L116.697 47.3646L116.441 46.5868L115.491 46.9ZM96.9412 25.55L96.1613 24.9241L96.1603 24.9253L96.9412 25.55ZM107.741 28.85L106.824 29.2487L106.827 29.2563L106.831 29.2638L107.741 28.85ZM102.991 29L103.849 29.5145L103.853 29.5071L103.857 29.4997L102.991 29ZM102.141 32.8L101.142 32.7608L101.101 33.8H102.141V32.8ZM108.241 32.8V33.8H109.241V32.8H108.241ZM106.041 22.75C109.199 22.75 111.319 23.6144 112.631 25.1497L114.151 23.8503C112.33 21.719 109.55 20.75 106.041 20.75V22.75ZM112.636 25.1549C113.726 26.4132 114.501 28.6528 114.795 32.0854L116.788 31.9146C116.482 28.3472 115.656 25.5868 114.147 23.8451L112.636 25.1549ZM114.794 32.0712C114.891 33.439 114.941 35.1634 114.941 37.25H116.941C116.941 35.1366 116.891 33.361 116.789 31.9288L114.794 32.0712ZM115.802 36.2598L112.252 36.7598L112.531 38.7402L116.081 38.2402L115.802 36.2598ZM112.391 36.75H102.091V38.75H112.391V36.75ZM101.091 37.75C101.091 39.8138 101.471 41.5456 102.385 42.7914L103.998 41.6086C103.444 40.8544 103.091 39.6195 103.091 37.75H101.091ZM102.395 42.8044C103.401 44.1314 105.084 44.65 107.091 44.65V42.65C105.365 42.65 104.448 42.202 103.988 41.5956L102.395 42.8044ZM107.091 44.65C109.15 44.65 111.555 44.1288 114.282 43.1401L113.6 41.2599C110.994 42.2045 108.833 42.65 107.091 42.65V44.65ZM112.992 42.5132L114.542 47.2132L116.441 46.5868L114.891 41.8868L112.992 42.5132ZM114.997 46.0306C111.971 47.7504 108.841 48.6 105.591 48.6V50.6C109.208 50.6 112.678 49.6496 115.985 47.7694L114.997 46.0306ZM105.591 48.6C101.911 48.6 99.3173 47.518 97.6178 45.5049C95.891 43.4594 94.9412 40.2833 94.9412 35.8H92.9412C92.9412 40.5167 93.9331 44.2406 96.0896 46.7951C98.2734 49.382 101.505 50.6 105.591 50.6V48.6ZM94.9412 35.8C94.9412 31.6138 95.9069 28.4437 97.7221 26.1747L96.1603 24.9253C93.9755 27.6563 92.9412 31.3195 92.9412 35.8H94.9412ZM97.7211 26.1759C99.5194 23.9354 102.231 22.75 106.041 22.75V20.75C101.785 20.75 98.4297 22.0979 96.1613 24.9241L97.7211 26.1759ZM108.658 28.4513C108.103 27.1751 106.87 26.7 105.491 26.7V28.7C106.445 28.7 106.712 28.9916 106.824 29.2487L108.658 28.4513ZM105.491 26.7C104.038 26.7 102.836 27.2673 102.125 28.5003L103.857 29.4997C104.146 28.9993 104.611 28.7 105.491 28.7V26.7ZM102.134 28.4855C101.505 29.5339 101.211 31.0019 101.142 32.7608L103.14 32.8392C103.205 31.1981 103.478 30.1328 103.849 29.5145L102.134 28.4855ZM102.141 33.8H108.241V31.8H102.141V33.8ZM109.241 32.8C109.241 30.9004 109.083 29.386 108.652 28.4362L106.831 29.2638C107.066 29.7807 107.241 30.8996 107.241 32.8H109.241ZM125.947 25.25V26.25H126.45L126.75 25.8463L125.947 25.25ZM139.797 24.7L140.554 24.046L140.554 24.046L139.797 24.7ZM137.347 47.7L137.945 48.5019L137.952 48.4962L137.347 47.7ZM126.747 48.5L127.269 47.6467L126.69 47.293L126.147 47.7L126.747 48.5ZM126.547 48.65L125.947 47.85L125.23 48.3882L125.687 49.1598L126.547 48.65ZM127.347 50H128.347V49.726L128.207 49.4902L127.347 50ZM127.347 58.05L127.451 59.0446L128.347 58.9509V58.05H127.347ZM119.697 58.85H118.697V59.96L119.801 59.8446L119.697 58.85ZM119.697 30.1H120.697V30.0626L120.694 30.0254L119.697 30.1ZM119.147 22.75L119.022 21.7578L118.079 21.8767L118.15 22.8246L119.147 22.75ZM125.097 22L126.078 21.8039L125.895 20.8915L124.972 21.0078L125.097 22ZM125.747 25.25L124.766 25.4461L124.927 26.25H125.747V25.25ZM127.347 42.85H126.347V43.3852L126.792 43.6821L127.347 42.85ZM133.147 41.9L134.015 42.3961L133.147 41.9ZM133.447 29.6L132.501 29.9237L132.506 29.9389L132.512 29.9539L133.447 29.6ZM127.347 29.2L126.553 28.5916L126.347 28.8608V29.2H127.347ZM126.75 25.8463C128.295 23.7663 130.314 22.75 132.897 22.75V20.75C129.68 20.75 127.066 22.0671 125.144 24.6537L126.75 25.8463ZM132.897 22.75C135.544 22.75 137.554 23.634 139.041 25.354L140.554 24.046C138.64 21.8327 136.05 20.75 132.897 20.75V22.75ZM139.041 25.354C140.494 27.0355 141.347 30.154 141.347 35H143.347C143.347 30.046 142.5 26.2978 140.554 24.046L139.041 25.354ZM141.347 35C141.347 40.7587 139.734 44.6298 136.742 46.9038L137.952 48.4962C141.627 45.7035 143.347 41.108 143.347 35H141.347ZM136.75 46.8981C135.22 48.0375 133.53 48.6 131.647 48.6V50.6C133.965 50.6 136.074 49.8959 137.945 48.5019L136.75 46.8981ZM131.647 48.6C129.683 48.6 128.254 48.2492 127.269 47.6467L126.226 49.3533C127.64 50.2175 129.477 50.6 131.647 50.6V48.6ZM126.147 47.7L125.947 47.85L127.147 49.45L127.347 49.3L126.147 47.7ZM125.687 49.1598L126.487 50.5098L128.207 49.4902L127.407 48.1402L125.687 49.1598ZM126.347 50V58.05H128.347V50H126.347ZM127.243 57.0554L119.593 57.8554L119.801 59.8446L127.451 59.0446L127.243 57.0554ZM120.697 58.85V30.1H118.697V58.85H120.697ZM120.694 30.0254L120.144 22.6754L118.15 22.8246L118.7 30.1746L120.694 30.0254ZM119.272 23.7421L125.222 22.9921L124.972 21.0078L119.022 21.7578L119.272 23.7421ZM124.116 22.1961L124.766 25.4461L126.728 25.0539L126.078 21.8039L124.116 22.1961ZM125.747 26.25H125.947V24.25H125.747V26.25ZM126.792 43.6821C127.793 44.3493 128.999 44.65 130.347 44.65V42.65C129.295 42.65 128.501 42.4174 127.902 42.0179L126.792 43.6821ZM130.347 44.65C131.955 44.65 133.196 43.8293 134.015 42.3961L132.279 41.4039C131.764 42.3041 131.139 42.65 130.347 42.65V44.65ZM134.015 42.3961C134.823 40.9835 135.147 38.7158 135.147 35.8H133.147C133.147 38.6842 132.805 40.4832 132.279 41.4039L134.015 42.3961ZM135.147 35.8C135.147 32.8891 134.918 30.663 134.382 29.2461L132.512 29.9539C132.909 31.0037 133.147 32.9109 133.147 35.8H135.147ZM134.393 29.2763C134.12 28.4774 133.661 27.8075 132.984 27.3475C132.311 26.8915 131.51 26.7 130.647 26.7V28.7C131.218 28.7 131.599 28.8252 131.861 29.0025C132.116 29.1758 132.341 29.456 132.501 29.9237L134.393 29.2763ZM130.647 26.7C128.951 26.7 127.537 27.3085 126.553 28.5916L128.141 29.8084C128.69 29.0915 129.476 28.7 130.647 28.7V26.7ZM126.347 29.2V42.85H128.347V29.2H126.347ZM164.71 24.5L163.949 25.1497L163.954 25.1549L164.71 24.5ZM167.11 32L168.107 31.9288L168.107 31.9217L168.106 31.9146L167.11 32ZM167.26 37.25L167.399 38.2402L168.26 38.119V37.25H167.26ZM163.71 37.75V38.75H163.78L163.849 38.7402L163.71 37.75ZM153.41 37.75V36.75H152.41V37.75H153.41ZM154.51 42.2L153.703 42.7914L153.708 42.7979L153.713 42.8044L154.51 42.2ZM165.26 42.2L166.209 41.8868L165.887 40.909L164.919 41.2599L165.26 42.2ZM166.81 46.9L167.304 47.7694L168.016 47.3646L167.759 46.5868L166.81 46.9ZM148.26 25.55L147.48 24.9241L147.479 24.9253L148.26 25.55ZM159.06 28.85L158.143 29.2487L158.146 29.2563L158.149 29.2638L159.06 28.85ZM154.31 29L155.167 29.5145L155.171 29.5071L155.176 29.4997L154.31 29ZM153.46 32.8L152.46 32.7608L152.42 33.8H153.46V32.8ZM159.56 32.8V33.8H160.56V32.8H159.56ZM157.36 22.75C160.517 22.75 162.637 23.6144 163.949 25.1497L165.47 23.8503C163.648 21.719 160.868 20.75 157.36 20.75V22.75ZM163.954 25.1549C165.044 26.4132 165.819 28.6528 166.113 32.0854L168.106 31.9146C167.8 28.3472 166.975 25.5868 165.465 23.8451L163.954 25.1549ZM166.112 32.0712C166.21 33.439 166.26 35.1634 166.26 37.25H168.26C168.26 35.1366 168.209 33.361 168.107 31.9288L166.112 32.0712ZM167.12 36.2598L163.57 36.7598L163.849 38.7402L167.399 38.2402L167.12 36.2598ZM163.71 36.75H153.41V38.75H163.71V36.75ZM152.41 37.75C152.41 39.8138 152.79 41.5456 153.703 42.7914L155.316 41.6086C154.763 40.8544 154.41 39.6195 154.41 37.75H152.41ZM153.713 42.8044C154.72 44.1314 156.403 44.65 158.41 44.65V42.65C156.683 42.65 155.766 42.202 155.306 41.5956L153.713 42.8044ZM158.41 44.65C160.468 44.65 162.873 44.1288 165.6 43.1401L164.919 41.2599C162.313 42.2045 160.151 42.65 158.41 42.65V44.65ZM164.31 42.5132L165.86 47.2132L167.759 46.5868L166.209 41.8868L164.31 42.5132ZM166.315 46.0306C163.29 47.7504 160.159 48.6 156.91 48.6V50.6C160.527 50.6 163.996 49.6496 167.304 47.7694L166.315 46.0306ZM156.91 48.6C153.229 48.6 150.636 47.518 148.936 45.5049C147.209 43.4594 146.26 40.2833 146.26 35.8H144.26C144.26 40.5167 145.251 44.2406 147.408 46.7951C149.592 49.382 152.824 50.6 156.91 50.6V48.6ZM146.26 35.8C146.26 31.6138 147.225 28.4437 149.04 26.1747L147.479 24.9253C145.294 27.6563 144.26 31.3195 144.26 35.8H146.26ZM149.039 26.1759C150.838 23.9354 153.549 22.75 157.36 22.75V20.75C153.103 20.75 149.748 22.0979 147.48 24.9241L149.039 26.1759ZM159.977 28.4513C159.422 27.1751 158.189 26.7 156.81 26.7V28.7C157.764 28.7 158.031 28.9916 158.143 29.2487L159.977 28.4513ZM156.81 26.7C155.356 26.7 154.155 27.2673 153.443 28.5003L155.176 29.4997C155.464 28.9993 155.93 28.7 156.81 28.7V26.7ZM153.452 28.4855C152.823 29.5339 152.529 31.0019 152.46 32.7608L154.459 32.8392C154.523 31.1981 154.796 30.1328 155.167 29.5145L153.452 28.4855ZM153.46 33.8H159.56V31.8H153.46V33.8ZM160.56 32.8C160.56 30.9004 160.402 29.386 159.97 28.4362L158.149 29.2638C158.384 29.7807 158.56 30.8996 158.56 32.8H160.56ZM177.365 27.5V28.5H178.122L178.328 27.7723L177.365 27.5ZM179.865 23.3L180.528 24.0486L180.528 24.0486L179.865 23.3ZM188.165 22.7L189.126 22.9779L189.357 22.178L188.613 21.8056L188.165 22.7ZM186.415 28.75L186.137 29.7103L187.098 29.9894L187.376 29.0279L186.415 28.75ZM180.215 29.75L179.544 29.009L179.538 29.0143L179.532 29.0197L180.215 29.75ZM178.665 49V50H179.665V49H178.665ZM171.015 49H170.015V50H171.015V49ZM171.015 30.15H172.015V30.1129L172.013 30.0759L171.015 30.15ZM170.465 22.75L170.337 21.7583L169.398 21.8797L169.468 22.8241L170.465 22.75ZM176.265 22L177.252 21.8385L177.096 20.8843L176.137 21.0083L176.265 22ZM177.165 27.5L176.179 27.6615L176.316 28.5H177.165V27.5ZM178.328 27.7723C178.785 26.1564 179.529 24.9339 180.528 24.0486L179.202 22.5514C177.869 23.7328 176.946 25.3102 176.403 27.2277L178.328 27.7723ZM180.528 24.0486C181.516 23.1743 182.631 22.75 183.915 22.75V20.75C182.133 20.75 180.549 21.359 179.202 22.5514L180.528 24.0486ZM183.915 22.75C185.344 22.75 186.605 23.0376 187.718 23.5944L188.613 21.8056C187.193 21.0957 185.621 20.75 183.915 20.75V22.75ZM187.205 22.4221L185.455 28.4721L187.376 29.0279L189.126 22.9779L187.205 22.4221ZM186.694 27.7897C185.608 27.4744 184.626 27.3 183.765 27.3V29.3C184.372 29.3 185.156 29.4256 186.137 29.7103L186.694 27.7897ZM183.765 27.3C182.19 27.3 180.773 27.895 179.544 29.009L180.887 30.491C181.791 29.6717 182.741 29.3 183.765 29.3V27.3ZM179.532 29.0197C178.238 30.2306 177.665 31.9491 177.665 34H179.665C179.665 32.3175 180.126 31.2027 180.899 30.4803L179.532 29.0197ZM177.665 34V49H179.665V34H177.665ZM178.665 48H171.015V50H178.665V48ZM172.015 49V30.15H170.015V49H172.015ZM172.013 30.0759L171.463 22.6759L169.468 22.8241L170.018 30.2241L172.013 30.0759ZM170.594 23.7417L176.394 22.9917L176.137 21.0083L170.337 21.7583L170.594 23.7417ZM175.279 22.1615L176.179 27.6615L178.152 27.3385L177.252 21.8385L175.279 22.1615ZM177.165 28.5H177.365V26.5H177.165V28.5ZM198.958 22.15H197.958V23.15H198.958V22.15ZM205.708 22.15L206.696 22.3101L206.884 21.15H205.708V22.15ZM204.808 27.7V28.7H205.659L205.796 27.8601L204.808 27.7ZM198.958 27.7V26.7H197.958V27.7H198.958ZM199.658 42.7L198.839 43.2735L198.839 43.2735L199.658 42.7ZM204.908 43.2L205.865 42.9097L205.594 42.014L204.682 42.226L204.908 43.2ZM206.258 47.65L206.878 48.4349L207.413 48.0123L207.215 47.3597L206.258 47.65ZM203.158 49L202.89 48.0368L202.884 48.0385L203.158 49ZM192.808 47.1L191.946 47.607L191.952 47.617L191.958 47.6269L192.808 47.1ZM191.308 27.7H192.308V26.7H191.308V27.7ZM187.458 27.7L186.468 27.5614L186.309 28.7H187.458V27.7ZM188.158 22.7L188.023 21.7092L187.273 21.8115L187.168 22.5614L188.158 22.7ZM191.458 22.25L191.594 23.2408L192.407 23.1298L192.457 22.3099L191.458 22.25ZM191.758 17.25L191.472 16.2918L190.802 16.4919L190.76 17.1901L191.758 17.25ZM198.958 15.1H199.958V13.7578L198.672 14.1418L198.958 15.1ZM198.958 23.15H205.708V21.15H198.958V23.15ZM204.721 21.9899L203.821 27.5399L205.796 27.8601L206.696 22.3101L204.721 21.9899ZM204.808 26.7H198.958V28.7H204.808V26.7ZM197.958 27.7V39.15H199.958V27.7H197.958ZM197.958 39.15C197.958 40.8736 198.182 42.3344 198.839 43.2735L200.478 42.1265C200.202 41.7322 199.958 40.8264 199.958 39.15H197.958ZM198.839 43.2735C199.56 44.3037 200.737 44.7 202.058 44.7V42.7C201.113 42.7 200.69 42.4296 200.478 42.1265L198.839 43.2735ZM202.058 44.7C202.66 44.7 203.725 44.5019 205.135 44.174L204.682 42.226C203.225 42.5648 202.39 42.7 202.058 42.7V44.7ZM203.951 43.4903L205.301 47.9403L207.215 47.3597L205.865 42.9097L203.951 43.4903ZM205.639 46.8651C205.163 47.2403 204.285 47.6475 202.89 48.0368L203.427 49.9632C204.899 49.5525 206.087 49.0597 206.878 48.4349L205.639 46.8651ZM202.884 48.0385C201.552 48.419 200.362 48.6 199.308 48.6V50.6C200.588 50.6 201.965 50.381 203.433 49.9615L202.884 48.0385ZM199.308 48.6C196.113 48.6 194.411 47.7867 193.658 46.5731L191.958 47.6269C193.273 49.7466 195.903 50.6 199.308 50.6V48.6ZM193.67 46.593C192.812 45.1337 192.308 42.5944 192.308 38.8H190.308C190.308 42.6722 190.805 45.6663 191.946 47.607L193.67 46.593ZM192.308 38.8V27.7H190.308V38.8H192.308ZM191.308 26.7H187.458V28.7H191.308V26.7ZM188.449 27.8386L189.149 22.8386L187.168 22.5614L186.468 27.5614L188.449 27.8386ZM188.294 23.6908L191.594 23.2408L191.323 21.2592L188.023 21.7092L188.294 23.6908ZM192.457 22.3099L192.757 17.3099L190.76 17.1901L190.46 22.1901L192.457 22.3099ZM192.045 18.2082L199.245 16.0582L198.672 14.1418L191.472 16.2918L192.045 18.2082ZM197.958 15.1V22.15H199.958V15.1H197.958ZM225.107 22.6L224.724 23.5237L224.724 23.5237L225.107 22.6ZM228.307 24.8L227.546 25.4485L227.559 25.4636L227.572 25.4783L228.307 24.8ZM230.207 28.05L229.266 28.3879L229.266 28.3882L230.207 28.05ZM227.357 46.75L226.678 46.0159L226.674 46.0193L227.357 46.75ZM214.157 48.75L213.774 49.6737L213.774 49.6737L214.157 48.75ZM210.907 46.6L210.146 47.2485L210.159 47.2636L210.172 47.2783L210.907 46.6ZM209.007 43.3L208.07 43.6478L208.074 43.659L209.007 43.3ZM209.607 27.7L210.494 28.163L210.497 28.1562L209.607 27.7ZM222.507 29.5L221.575 29.8625L221.579 29.8714L222.507 29.5ZM216.607 29.4L215.673 29.0429L215.669 29.055L215.664 29.0672L216.607 29.4ZM216.707 41.9L215.775 42.2625L215.779 42.2714L216.707 41.9ZM222.607 42L223.547 42.3418L223.55 42.3328L222.607 42ZM220.307 22.75C222.04 22.75 223.504 23.0179 224.724 23.5237L225.49 21.6763C223.977 21.0488 222.242 20.75 220.307 20.75V22.75ZM224.724 23.5237C225.981 24.0447 226.904 24.6953 227.546 25.4485L229.068 24.1515C228.177 23.1047 226.967 22.2886 225.49 21.6763L224.724 23.5237ZM227.572 25.4783C228.267 26.2311 228.837 27.1927 229.266 28.3879L231.148 27.7121C230.644 26.3073 229.947 25.1022 229.042 24.1217L227.572 25.4783ZM229.266 28.3882C229.982 30.3813 230.357 32.8759 230.357 35.9H232.357C232.357 32.7241 231.965 29.9854 231.148 27.7118L229.266 28.3882ZM230.357 35.9C230.357 40.4795 229.082 43.7928 226.678 46.0159L228.036 47.4841C230.966 44.7739 232.357 40.8539 232.357 35.9H230.357ZM226.674 46.0193C224.874 47.7016 222.344 48.6 218.957 48.6V50.6C222.703 50.6 225.774 49.5984 228.04 47.4807L226.674 46.0193ZM218.957 48.6C217.225 48.6 215.76 48.3321 214.54 47.8263L213.774 49.6737C215.288 50.3012 217.023 50.6 218.957 50.6V48.6ZM214.54 47.8263C213.274 47.3013 212.322 46.6586 211.642 45.9217L210.172 47.2783C211.092 48.2747 212.307 49.0653 213.774 49.6737L214.54 47.8263ZM211.668 45.9515C210.987 45.1514 210.407 44.1538 209.941 42.941L208.074 43.659C208.607 45.0462 209.294 46.2486 210.146 47.2485L211.668 45.9515ZM209.945 42.9522C209.233 41.034 208.857 38.5454 208.857 35.45H206.857C206.857 38.6879 207.248 41.4327 208.07 43.6478L209.945 42.9522ZM208.857 35.45C208.857 32.6514 209.413 30.2316 210.494 28.163L208.721 27.237C207.468 29.635 206.857 32.3819 206.857 35.45H208.857ZM210.497 28.1562C211.432 26.332 212.699 24.9981 214.293 24.1115C215.895 23.2206 217.885 22.75 220.307 22.75V20.75C217.629 20.75 215.286 21.271 213.321 22.3635C211.349 23.4603 209.816 25.1013 208.717 27.2438L210.497 28.1562ZM224.207 35.8C224.207 32.7697 223.981 30.4929 223.436 29.1286L221.579 29.8714C221.966 30.8404 222.207 32.7636 222.207 35.8H224.207ZM223.439 29.1376C223.134 28.3536 222.632 27.7186 221.922 27.2925C221.225 26.8743 220.4 26.7 219.507 26.7V28.7C220.148 28.7 220.59 28.8257 220.893 29.0075C221.183 29.1814 221.413 29.4464 221.575 29.8624L223.439 29.1376ZM219.507 26.7C218.638 26.7 217.832 26.8636 217.152 27.2623C216.455 27.6704 215.964 28.2827 215.673 29.0429L217.541 29.7571C217.684 29.384 217.892 29.1463 218.163 28.9877C218.449 28.8197 218.877 28.7 219.507 28.7V26.7ZM215.664 29.0672C215.201 30.3807 215.007 32.6067 215.007 35.6H217.007C217.007 32.5933 217.214 30.6859 217.55 29.7328L215.664 29.0672ZM215.007 35.6C215.007 38.6024 215.234 40.8713 215.775 42.2624L217.639 41.5376C217.247 40.5287 217.007 38.5976 217.007 35.6H215.007ZM215.779 42.2714C216.087 43.0428 216.594 43.6626 217.303 44.0763C217.998 44.4816 218.819 44.65 219.707 44.65V42.65C219.062 42.65 218.616 42.5268 218.311 42.3487C218.02 42.1791 217.794 41.9239 217.636 41.5286L215.779 42.2714ZM219.707 44.65C220.585 44.65 221.396 44.4938 222.077 44.1067C222.778 43.7078 223.271 43.1021 223.547 42.3417L221.667 41.6583C221.544 41.9979 221.353 42.2172 221.088 42.3683C220.802 42.5312 220.363 42.65 219.707 42.65V44.65ZM223.55 42.3328C224.014 41.0193 224.207 38.7933 224.207 35.8H222.207C222.207 38.8067 222.001 40.7141 221.664 41.6672L223.55 42.3328ZM241.623 27.5V28.5H242.38L242.585 27.7723L241.623 27.5ZM244.123 23.3L244.786 24.0486L244.786 24.0486L244.123 23.3ZM252.423 22.7L253.384 22.9779L253.615 22.178L252.87 21.8056L252.423 22.7ZM250.673 28.75L250.394 29.7103L251.356 29.9894L251.634 29.0279L250.673 28.75ZM244.473 29.75L243.802 29.009L243.796 29.0143L243.79 29.0197L244.473 29.75ZM242.923 49V50H243.923V49H242.923ZM235.273 49H234.273V50H235.273V49ZM235.273 30.15H236.273V30.1129L236.27 30.0759L235.273 30.15ZM234.723 22.75L234.595 21.7583L233.656 21.8797L233.726 22.8241L234.723 22.75ZM240.523 22L241.51 21.8385L241.354 20.8843L240.395 21.0083L240.523 22ZM241.423 27.5L240.436 27.6615L240.574 28.5H241.423V27.5ZM242.585 27.7723C243.043 26.1564 243.787 24.9339 244.786 24.0486L243.46 22.5514C242.126 23.7328 241.204 25.3102 240.661 27.2277L242.585 27.7723ZM244.786 24.0486C245.773 23.1743 246.889 22.75 248.173 22.75V20.75C246.391 20.75 244.806 21.359 243.46 22.5514L244.786 24.0486ZM248.173 22.75C249.601 22.75 250.862 23.0376 251.976 23.5944L252.87 21.8056C251.451 21.0957 249.878 20.75 248.173 20.75V22.75ZM251.463 22.4221L249.713 28.4721L251.634 29.0279L253.384 22.9779L251.463 22.4221ZM250.952 27.7897C249.866 27.4744 248.884 27.3 248.023 27.3V29.3C248.629 29.3 249.414 29.4256 250.394 29.7103L250.952 27.7897ZM248.023 27.3C246.448 27.3 245.031 27.895 243.802 29.009L245.145 30.491C246.049 29.6717 246.999 29.3 248.023 29.3V27.3ZM243.79 29.0197C242.496 30.2306 241.923 31.9491 241.923 34H243.923C243.923 32.3175 244.384 31.2027 245.156 30.4803L243.79 29.0197ZM241.923 34V49H243.923V34H241.923ZM242.923 48H235.273V50H242.923V48ZM236.273 49V30.15H234.273V49H236.273ZM236.27 30.0759L235.72 22.6759L233.726 22.8241L234.276 30.2241L236.27 30.0759ZM234.851 23.7417L240.651 22.9917L240.395 21.0083L234.595 21.7583L234.851 23.7417ZM239.536 22.1615L240.436 27.6615L242.41 27.3385L241.51 21.8385L239.536 22.1615ZM241.423 28.5H241.623V26.5H241.423V28.5ZM267.416 22L267.525 21.0059L266.621 20.9069L266.437 21.7977L267.416 22ZM274.266 22.75L275.229 23.0212L275.549 21.8845L274.375 21.7559L274.266 22.75ZM268.166 44.4L267.204 44.1288L267.201 44.1369L268.166 44.4ZM266.216 49.85L265.318 49.4112L265.312 49.4236L265.306 49.4362L266.216 49.85ZM263.616 54.15L262.821 53.5439L262.814 53.553L263.616 54.15ZM259.566 57.55L259.112 56.6592L259.101 56.6648L259.09 56.6707L259.566 57.55ZM254.716 59L253.845 59.4903L254.152 60.0364L254.777 59.9981L254.716 59ZM252.016 54.2L251.837 53.2161L250.457 53.4672L251.145 54.6903L252.016 54.2ZM259.116 48.6L260.09 48.8272L260.151 48.5667L260.073 48.3106L259.116 48.6ZM255.216 35.15L254.253 35.4185L254.254 35.4233L255.216 35.15ZM251.716 22.75L251.617 21.7549L250.418 21.874L250.756 23.0306L251.716 22.75ZM259.266 22L260.249 21.8168L260.081 20.9141L259.167 21.0049L259.266 22ZM262.966 41.85L261.983 42.0332L262.135 42.85H262.966V41.85ZM263.316 41.85V42.85H264.131L264.296 42.0523L263.316 41.85ZM267.307 22.9941L274.157 23.7441L274.375 21.7559L267.525 21.0059L267.307 22.9941ZM273.304 22.4788L267.204 44.1288L269.129 44.6712L275.229 23.0212L273.304 22.4788ZM267.201 44.1369C266.612 46.2998 265.981 48.0525 265.318 49.4112L267.115 50.2888C267.851 48.7808 268.521 46.9002 269.131 44.6631L267.201 44.1369ZM265.306 49.4362C264.673 50.8287 263.846 52.1981 262.821 53.544L264.412 54.756C265.52 53.3019 266.426 51.8046 267.127 50.2638L265.306 49.4362ZM262.814 53.553C261.842 54.8597 260.612 55.8939 259.112 56.6592L260.021 58.4408C261.787 57.5394 263.258 56.307 264.418 54.747L262.814 53.553ZM259.09 56.6707C257.604 57.4758 256.127 57.9117 254.655 58.0019L254.777 59.9981C256.572 59.8883 258.329 59.3575 260.042 58.4293L259.09 56.6707ZM255.588 58.5097L252.888 53.7097L251.145 54.6903L253.845 59.4903L255.588 58.5097ZM252.195 55.1839C254.317 54.798 256.086 54.0996 257.435 53.0352C258.801 51.9581 259.69 50.5427 260.09 48.8272L258.142 48.3728C257.843 49.6573 257.198 50.6752 256.197 51.4648C255.18 52.2671 253.748 52.8687 251.837 53.2161L252.195 55.1839ZM260.073 48.3106C259.209 45.4524 257.911 40.9758 256.178 34.8767L254.254 35.4233C255.988 41.5242 257.29 46.0142 258.159 48.8894L260.073 48.3106ZM256.18 34.8815C254.48 28.7822 253.311 24.643 252.676 22.4694L250.756 23.0306C251.388 25.1903 252.553 29.3178 254.253 35.4185L256.18 34.8815ZM251.815 23.7451L259.365 22.9951L259.167 21.0049L251.617 21.7549L251.815 23.7451ZM258.283 22.1832L261.983 42.0332L263.949 41.6668L260.249 21.8168L258.283 22.1832ZM262.966 42.85H263.316V40.85H262.966V42.85ZM264.296 42.0523L268.396 22.2023L266.437 21.7977L262.337 41.6477L264.296 42.0523Z" fill="#FFFEFE"/>
</g>
<g filter="url(#filter1_d)">
<path d="M289.333 30.7917C293.936 30.7917 297.667 26.9674 297.667 22.25C297.667 17.5326 293.936 13.7083 289.333 13.7083C284.731 13.7083 281 17.5326 281 22.25C281 26.9674 284.731 30.7917 289.333 30.7917Z" fill="white"/>
<path d="M276 42.2083C276 37.7901 279.582 34.2083 284 34.2083H294.667C299.085 34.2083 302.667 37.7901 302.667 42.2083V49.2917C302.667 50.3962 301.771 51.2917 300.667 51.2917H278C276.895 51.2917 276 50.3962 276 49.2917V42.2083Z" fill="white"/>
<path d="M304.333 34.2083C307.095 34.2083 309.333 31.9138 309.333 29.0833C309.333 26.2529 307.095 23.9583 304.333 23.9583C301.572 23.9583 299.333 26.2529 299.333 29.0833C299.333 31.9138 301.572 34.2083 304.333 34.2083Z" fill="white"/>
<path d="M307.667 29.0833V15.4167L312.667 17.125" stroke="white" stroke-width="2" stroke-linecap="round" stroke-linejoin="round"/>
</g>
<defs>
<filter id="filter0_d" x="0.422424" y="12.6" width="279.127" height="55.4364" filterUnits="userSpaceOnUse" color-interpolation-filters="sRGB">
<feFlood flood-opacity="0" result="BackgroundImageFix"/>
<feColorMatrix in="SourceAlpha" type="matrix" values="0 0 0 0 0 0 0 0 0 0 0 0 0 0 0 0 0 0 127 0"/>
<feOffset dy="4"/>
<feGaussianBlur stdDeviation="2"/>
<feColorMatrix type="matrix" values="0 0 0 0 0 0 0 0 0 0 0 0 0 0 0 0 0 0 0.25 0"/>
<feBlend mode="normal" in2="BackgroundImageFix" result="effect1_dropShadow"/>
<feBlend mode="normal" in="SourceGraphic" in2="effect1_dropShadow" result="shape"/>
</filter>
<filter id="filter1_d" x="272" y="12" width="48" height="49" filterUnits="userSpaceOnUse" color-interpolation-filters="sRGB">
<feFlood flood-opacity="0" result="BackgroundImageFix"/>
<feColorMatrix in="SourceAlpha" type="matrix" values="0 0 0 0 0 0 0 0 0 0 0 0 0 0 0 0 0 0 127 0"/>
<feOffset dy="4"/>
<feGaussianBlur stdDeviation="2"/>
<feColorMatrix type="matrix" values="0 0 0 0 0 0 0 0 0 0 0 0 0 0 0 0 0 0 0.25 0"/>
<feBlend mode="normal" in2="BackgroundImageFix" result="effect1_dropShadow"/>
<feBlend mode="normal" in="SourceGraphic" in2="effect1_dropShadow" result="shape"/>
</filter>
</defs>
</svg>
